<svg width="137" height="156" viewBox="0 0 137 156" fill="none" xmlns="http://www.w3.org/2000/svg">
<path d="M132.714 145.445C132.714 145.494 104.587 145.535 69.8989 145.535C35.211 145.535 7.07794 145.494 7.07794 145.445C7.07794 145.397 35.1988 145.355 69.8989 145.355C104.599 145.355 132.714 145.393 132.714 145.445Z" fill="#263238"/>
<path d="M132.714 155.209C132.714 155.257 104.587 155.299 69.8989 155.299C35.211 155.299 7.07794 155.257 7.07794 155.209C7.07794 155.161 35.1988 155.119 69.8989 155.119C104.599 155.119 132.714 155.157 132.714 155.209Z" fill="#263238"/>
<path d="M30.1961 20.2098L29.1107 17.6901C30.5189 13.3051 28.7643 8.41792 25.0653 6.4223C21.3664 4.42667 16.9447 5.98167 14.8707 10.0075C12.7968 14.0333 13.7555 19.2004 17.0811 21.9206C20.4068 24.6409 25.001 24.0159 27.6736 20.4797L30.1961 20.2098Z" fill="white"/>
<path d="M30.1962 20.2097L30.0385 20.2305L29.5595 20.2893L27.6736 20.5143C27.6637 20.5155 27.654 20.5105 27.6483 20.5011C27.6426 20.4917 27.6418 20.4795 27.6463 20.4693L27.6918 20.5039C26.8372 21.6495 25.7463 22.5345 24.5174 23.079C24.1342 23.2471 23.7398 23.3802 23.338 23.477C22.9059 23.5745 22.4681 23.6358 22.0282 23.6604C19.9789 23.7688 17.973 22.9633 16.4344 21.4142C15.5683 20.5426 14.8784 19.4669 14.4121 18.2612C13.3873 15.6008 13.536 12.5419 14.8123 10.0273L15.064 9.54963L15.3671 9.0997L15.5096 8.87472L15.6703 8.66706L15.9917 8.25519C16.1039 8.12367 16.2282 8.00254 16.3434 7.87793C16.4575 7.75446 16.578 7.63888 16.7042 7.53183C16.9502 7.30484 17.2085 7.09561 17.4773 6.90537C18.5239 6.16228 19.7048 5.7007 20.9307 5.55555C23.1751 5.31466 25.4042 6.16829 27.0673 7.90563C27.7814 8.65263 28.3692 9.54306 28.8015 10.5326C28.9989 10.9784 29.1652 11.4413 29.2987 11.917C29.4132 12.3716 29.5023 12.834 29.5655 13.3014C29.7526 14.7878 29.6098 16.3039 29.1502 17.7108L29.1502 17.6866L29.9445 19.5798C30.0324 19.7875 30.0991 19.9467 30.1446 20.0609L30.2113 20.2201C30.2113 20.2201 30.181 20.1613 30.1325 20.054C30.084 19.9467 30.0112 19.7771 29.9203 19.5694L29.1017 17.7143C29.0984 17.7067 29.0984 17.6977 29.1017 17.6901C29.543 16.2901 29.6743 14.7872 29.4837 13.3153C29.4149 12.8576 29.3238 12.4046 29.2108 11.9585C29.0776 11.4832 28.9124 11.0203 28.7166 10.5741C27.7281 8.31442 25.9477 6.63807 23.8163 5.96005C21.6849 5.28203 19.4017 5.66571 17.5319 7.01613C17.2655 7.20173 17.0102 7.40755 16.7679 7.6322C16.6445 7.73922 16.5271 7.85481 16.4162 7.97831C16.301 8.1029 16.1797 8.22058 16.0705 8.34864L15.7674 8.75705L15.6097 8.96125L15.4702 9.1793L15.1852 9.62232L14.9366 10.0965C14.2967 11.3407 13.9353 12.7458 13.8845 14.1875C13.8262 15.5631 14.0494 16.9353 14.5364 18.1954C15.8347 21.5609 18.8032 23.6786 22.0222 23.5358C22.4581 23.5154 22.8919 23.4564 23.3198 23.3593C23.7175 23.2665 24.1079 23.1368 24.4871 22.9717C25.7072 22.444 26.7944 21.581 27.6524 20.4589C27.6576 20.4528 27.6647 20.4493 27.6721 20.4493C27.6796 20.4493 27.6867 20.4528 27.6918 20.4589C27.6994 20.4702 27.6994 20.4858 27.6918 20.497L27.6645 20.452L29.5352 20.2686L30.0234 20.2236L30.1962 20.2097Z" fill="#263238"/>
<path d="M18.0352 15.1808L19.06 14.011L21.0307 16.0149L24.9025 11.7613L25.8515 12.9276L20.8852 18.2646L18.0352 15.1808Z" fill="#455A64"/>
<path d="M71.3603 36.1341C71.3603 36.1341 73.0066 31.8493 73.0278 29.7139C73.0491 27.5784 73.1188 24.1761 73.7252 24.2384C73.9341 24.2271 74.1363 24.3238 74.2757 24.5018C74.4151 24.6797 74.4768 24.9199 74.4437 25.1556C74.4437 25.5917 74.0647 29.0736 74.2588 29.3401C74.3285 29.4536 74.4509 29.5087 74.5697 29.4801C74.6886 29.4514 74.781 29.3446 74.8045 29.2085C74.8045 28.9247 75.6808 24.7091 75.9839 24.363C76.2871 24.0169 77.1027 23.92 76.9754 25.0552C76.848 26.1905 76.2053 28.3467 76.1355 29.1428C76.0658 29.9388 75.9567 29.8038 76.2811 30.2538C76.2811 30.2538 78.4276 25.8651 78.7672 25.7994C78.9513 25.7507 79.144 25.8202 79.2701 25.9808C79.3963 26.1414 79.4359 26.3676 79.3736 26.5712C79.2645 27.1596 78.0638 29.5339 77.894 29.9354C77.7242 30.3369 77.4817 30.8456 77.4817 30.8456L77.3756 31.2783C77.3756 31.2783 77.7515 30.856 77.982 30.9322C78.2124 31.0083 78.6672 31.3717 78.6308 31.8839C78.5944 32.3962 77.1148 34.9366 76.6964 35.9507C76.278 36.9648 74.6499 38.6953 74.6499 38.6953L71.3603 36.1341Z" fill="#FFBF9D"/>
<path d="M71.5179 35.4177C71.6477 34.8665 71.7179 34.2993 71.7271 33.7287C71.7878 33.1611 71.9849 32.5485 72.4336 32.2993C72.688 32.1807 72.9632 32.1321 73.237 32.1574C74.3676 32.2099 75.4938 32.3475 76.6085 32.5692C76.4963 33.1922 76.4236 33.8118 75.9475 34.1405C75.3585 34.4528 74.6921 34.5189 74.0647 34.3275C74.5279 35.413 74.561 36.6732 74.1557 37.7885" fill="#FFBF9D"/>
<path d="M74.1557 37.7747C74.2369 37.4656 74.3017 37.1513 74.3497 36.8333C74.4531 35.9875 74.3327 35.1258 74.0041 34.3586L73.9435 34.2133L74.0829 34.2548C74.6043 34.4004 75.1506 34.3801 75.6625 34.196C75.9364 34.0981 76.1626 33.8751 76.2871 33.5799C76.4056 33.2464 76.488 32.8978 76.5327 32.5416L76.5964 32.6489L76.2932 32.5969C75.3472 32.4343 74.4498 32.2924 73.6251 32.2508C73.2458 32.1931 72.8603 32.2226 72.4912 32.3374C72.1959 32.5014 71.9755 32.8008 71.8848 33.1611C71.7961 33.4607 71.744 33.7728 71.7302 34.0887C71.7089 34.3725 71.6908 34.6182 71.6635 34.8155C71.6416 34.9682 71.6092 35.1186 71.5664 35.2654C71.5535 35.3174 71.533 35.3665 71.5058 35.4108C71.5058 35.4108 71.5664 35.1997 71.6028 34.8051C71.621 34.6078 71.6301 34.3655 71.6422 34.0817C71.649 33.7543 71.6949 33.4294 71.7787 33.1161C71.8756 32.7175 72.1157 32.3843 72.4396 32.1989C72.8258 32.0684 73.2313 32.0295 73.6311 32.0847C74.5305 32.1435 75.4263 32.259 76.3144 32.4308L76.6176 32.4827H76.6994L76.6843 32.5762C76.6362 32.9424 76.5486 33.3005 76.4236 33.6422C76.2791 33.9759 76.0201 34.2265 75.708 34.3344C75.4292 34.439 75.1374 34.4916 74.8439 34.4901C74.5737 34.497 74.304 34.4586 74.0435 34.3759L74.1193 34.2721C74.4509 35.0667 74.5569 35.9597 74.4225 36.8264C74.3839 37.0624 74.3271 37.294 74.2527 37.5186C74.2314 37.6089 74.1987 37.6951 74.1557 37.7747Z" fill="#FF9A6C"/>
<path d="M77.3635 31.2263C76.8012 31.8053 76.2839 32.4387 75.8172 33.1195C75.6543 33.301 75.5653 33.552 75.5716 33.8117C75.6329 34.0801 75.8385 34.2729 76.081 34.2894C76.3189 34.298 76.5545 34.2334 76.7631 34.1025C77.2897 33.8145 77.7615 33.4111 78.1517 32.9153" fill="#FFBF9D"/>
<path d="M78.1518 32.9188C78.1166 33.003 78.0683 33.0792 78.0093 33.1437C77.8603 33.3296 77.6981 33.5009 77.5242 33.656C77.2641 33.8868 76.9812 34.082 76.6813 34.2375C76.4978 34.3409 76.2946 34.3908 76.0901 34.3828C75.8518 34.3676 75.6385 34.2096 75.5292 33.9675C75.4801 33.8385 75.4726 33.6938 75.508 33.5591C75.5372 33.4344 75.5866 33.317 75.6535 33.213C75.7718 33.0192 75.896 32.8669 76.0143 32.6938C76.2538 32.3754 76.4812 32.102 76.6813 31.8805C76.8844 31.6284 77.1135 31.4052 77.3635 31.2159C77.3786 31.2159 77.133 31.5067 76.7571 31.9705C76.5722 32.1989 76.3539 32.4792 76.1234 32.8011C76.0113 32.9638 75.887 33.1472 75.7778 33.3133C75.6569 33.4692 75.6166 33.686 75.6717 33.8844C75.7578 34.0652 75.9193 34.1829 76.0992 34.1959C76.279 34.2033 76.4577 34.1618 76.6207 34.0748C76.9137 33.9312 77.1931 33.7538 77.4544 33.5452C77.9032 33.1922 78.1336 32.898 78.1518 32.9188Z" fill="#FF9A6C"/>
<path d="M52.1198 132.667L52.0895 140.603C52.0895 140.603 59.1508 143.303 59.2721 144.774L45.7831 145.255L45.3829 132.882L52.1198 132.667Z" fill="#455A64"/>
<path d="M47.9025 140.091C47.6353 140.192 47.479 140.508 47.5417 140.821C47.6224 141.129 47.8989 141.311 48.1723 141.237C48.454 141.125 48.6172 140.79 48.5513 140.458C48.4378 140.146 48.128 139.993 47.8509 140.112" fill="#E0E0E0"/>
<path d="M45.7832 145.255V144.005H58.7143C58.7143 144.005 59.3206 144.282 59.2691 144.77L45.7832 145.255Z" fill="#263238"/>
<path d="M52.3108 140.52C52.3108 140.593 51.9834 140.641 51.665 140.894C51.3467 141.147 51.183 141.468 51.1223 141.441C51.0617 141.413 51.1466 140.977 51.5347 140.676C51.9228 140.375 52.3108 140.447 52.3108 140.52Z" fill="white"/>
<path d="M53.7419 141.136C53.7571 141.209 53.4751 141.344 53.2599 141.673C53.0446 142.001 52.99 142.337 52.9264 142.337C52.8627 142.337 52.8051 141.912 53.081 141.51C53.3569 141.109 53.7359 141.064 53.7419 141.136Z" fill="white"/>
<path d="M54.5969 143.04C54.5393 143.04 54.4362 142.694 54.5969 142.268C54.7576 141.842 55.0577 141.673 55.088 141.735C55.1184 141.797 54.9334 142.026 54.8091 142.368C54.6848 142.711 54.6636 143.029 54.5969 143.04Z" fill="white"/>
<path d="M52.138 138.71C52.1107 138.779 51.8075 138.686 51.4346 138.727C51.0617 138.769 50.7767 138.914 50.7403 138.852C50.7039 138.79 50.9768 138.506 51.4164 138.468C51.856 138.43 52.1683 138.648 52.138 138.71Z" fill="white"/>
<path d="M35.9386 134.214L35.5657 143.812L37.1756 151.485C37.2319 151.75 37.1891 152.03 37.0575 152.258C36.9258 152.486 36.7171 152.641 36.4813 152.686C36.2068 152.738 35.9271 152.636 35.7294 152.412C34.4742 150.976 29.9961 145.591 29.9688 145.078C29.9385 144.262 29.7323 134.809 29.7323 134.809L35.9386 134.214Z" fill="#455A64"/>
<path d="M36.4813 152.7L29.9476 144.327V144.732C29.9498 145.085 30.0566 145.427 30.2508 145.701C30.7722 146.432 32.2488 148.411 35.7294 152.426C35.9324 152.659 36.2231 152.761 36.5056 152.7H36.4813Z" fill="#263238"/>
<g opacity="0.6">
<path d="M31.7303 141.271C31.9414 141.456 31.9974 141.793 31.8607 142.053C31.7048 142.3 31.4078 142.367 31.1816 142.206C30.9593 142.007 30.9032 141.649 31.0512 141.375C31.236 141.136 31.5539 141.106 31.7698 141.309" fill="white"/>
</g>
<path d="M34.6409 148.456C34.8485 148.16 35.1037 147.913 35.3929 147.726C35.7032 147.595 36.0323 147.532 36.3631 147.539C36.3631 147.515 36.266 147.439 36.0599 147.401C35.8011 147.359 35.5374 147.406 35.3019 147.536C35.0655 147.66 34.8655 147.86 34.7258 148.11C34.6349 148.304 34.6197 148.446 34.6409 148.456Z" fill="white"/>
<path d="M35.2139 149.754C35.4583 149.605 35.7105 149.474 35.9689 149.36C36.2406 149.306 36.515 149.272 36.7905 149.259C36.8178 149.211 36.4146 148.996 35.9174 149.156C35.4201 149.315 35.1715 149.73 35.2139 149.754Z" fill="white"/>
<path d="M33.5555 146.778C33.5949 146.826 34.0163 146.352 34.6803 146.086C35.0911 145.947 35.5108 145.847 35.9355 145.784C35.9355 145.733 35.3291 145.584 34.6167 145.888C33.9042 146.193 33.513 146.75 33.5555 146.778Z" fill="white"/>
<path d="M33.4554 143.85C33.4767 143.909 33.9466 143.701 34.553 143.691C35.1594 143.68 35.6324 143.857 35.6536 143.798C34.9678 143.354 34.1246 143.374 33.4554 143.85Z" fill="white"/>
<path d="M33.513 141.032C33.882 140.905 34.2646 140.836 34.65 140.828C35.2897 140.859 35.7294 141.23 35.7597 141.174C35.79 141.119 35.6839 141.032 35.4929 140.901C34.9771 140.56 34.3499 140.52 33.8041 140.794C33.5919 140.901 33.4918 141.008 33.513 141.032Z" fill="white"/>
<path d="M34.6349 140.292C34.6661 140.174 34.6724 140.049 34.6531 139.928C34.6321 139.594 34.5527 139.268 34.4196 138.97C34.3383 138.742 34.1934 138.551 34.0073 138.426C33.8751 138.357 33.7193 138.389 33.6162 138.506C33.5242 138.624 33.4744 138.777 33.4767 138.935C33.5017 139.602 33.9404 140.154 34.5197 140.247C35.0882 140.327 35.6426 140.007 35.9234 139.437C35.9927 139.295 36.0038 139.125 35.9538 138.973C35.8896 138.822 35.7476 138.736 35.6021 138.759C35.3947 138.808 35.2017 138.916 35.0412 139.073C34.8091 139.277 34.61 139.525 34.453 139.807C34.3873 139.904 34.3417 140.016 34.3196 140.136C34.5433 139.778 34.8132 139.461 35.12 139.195C35.2638 139.064 35.4335 138.975 35.6142 138.935C35.6934 138.918 35.7727 138.965 35.8052 139.049C35.8327 139.152 35.8194 139.263 35.7688 139.354C35.5174 139.835 35.044 140.105 34.5561 140.046C34.0636 139.969 33.6848 139.511 33.6465 138.945C33.6423 138.835 33.6736 138.727 33.7344 138.641C33.7891 138.573 33.8764 138.553 33.9497 138.592C34.1054 138.701 34.2289 138.86 34.3044 139.049C34.478 139.438 34.5899 139.859 34.6349 140.292Z" fill="white"/>
<path d="M56.2705 67.3565C57.0434 70.6109 57.3888 73.9784 57.2953 77.3486C57.2316 79.4841 53.1234 138.713 53.1234 138.713L44.6341 139.125L44.9555 83.6478L44.2642 83.852C44.2642 83.852 40.5016 107.695 40.2651 111.541C40.0529 115.002 37.0664 140.157 37.0664 140.157L29.2987 140.634L30.5539 107.484L32.2639 75.6423L33.0098 66.3424L56.2705 67.3565Z" fill="#263238"/>
<path d="M43.4031 78.0443C43.5163 78.1316 43.6385 78.2025 43.767 78.2554C44.1079 78.4322 44.4677 78.5568 44.8372 78.6258C45.0975 78.6683 45.3624 78.6578 45.6195 78.5946C45.922 78.5209 46.2003 78.3518 46.4229 78.1066C46.6502 77.8185 46.808 77.4678 46.8807 77.0891C46.9601 76.7007 47.0218 76.3079 47.0657 75.9123C47.2779 74.2994 47.4083 72.8319 47.475 71.759C47.5083 71.2295 47.5296 70.7968 47.5356 70.4992C47.5519 70.3451 47.5519 70.1894 47.5356 70.0354C47.4952 70.1851 47.4698 70.3395 47.4598 70.4957C47.4295 70.8349 47.3901 71.2537 47.3416 71.7521C47.2415 72.8112 47.093 74.2717 46.8807 75.8777C46.7746 76.6737 46.711 77.4802 46.2956 77.9716C45.9037 78.3803 45.3714 78.5659 44.8463 78.477C44.4845 78.4241 44.1294 78.3231 43.7882 78.1758C43.6643 78.1166 43.5352 78.0725 43.4031 78.0443Z" fill="#455A64"/>
<path d="M45.6831 70.4092C45.6831 70.4092 45.6286 70.3607 45.5073 70.3607C45.3355 70.3633 45.1696 70.4329 45.0373 70.558C44.8291 70.7406 44.707 71.0232 44.7068 71.3229C44.7452 71.6965 44.97 72.0106 45.283 72.128C45.596 72.2454 45.9403 72.1446 46.1652 71.8698C46.3208 71.6278 46.369 71.317 46.2956 71.0287C46.2548 70.8378 46.1573 70.669 46.0197 70.5511C45.9226 70.4715 45.8559 70.4646 45.8529 70.4715C46.0116 70.6235 46.1233 70.8298 46.1712 71.0599C46.2187 71.3018 46.1699 71.5552 46.0378 71.7521C45.8539 71.957 45.5855 72.0284 45.3411 71.9376C45.0967 71.8468 44.9167 71.6087 44.8736 71.3194C44.8679 71.0722 44.9591 70.835 45.1222 70.6722C45.2799 70.5186 45.4764 70.4264 45.6831 70.4092Z" fill="#455A64"/>
<path d="M32.361 75.0574C32.4598 75.0871 32.562 75.0999 32.6642 75.0955C32.9303 75.1069 33.1967 75.0965 33.4615 75.0643C35.2319 74.8645 36.8875 73.9732 38.1489 72.5412C38.3392 72.3255 38.5156 72.0941 38.6764 71.849C38.7416 71.7649 38.7957 71.6705 38.8371 71.5686C38.8098 71.5444 38.5521 71.9148 38.0609 72.427C37.4235 73.0941 36.7019 73.6483 35.9204 74.071C35.1366 74.49 34.303 74.7745 33.4464 74.9155C32.7763 75.0263 32.361 75.0193 32.361 75.0574Z" fill="#455A64"/>
<path d="M52.8839 70.2396C53.0055 70.5853 53.1665 70.9111 53.363 71.2087C53.8064 71.9499 54.3277 72.6264 54.9153 73.223C55.5015 73.822 56.149 74.338 56.8436 74.7597C57.1291 74.9483 57.4348 75.0938 57.7532 75.1924C57.4846 74.9879 57.2063 74.8007 56.9194 74.6317C56.2533 74.1797 55.6259 73.657 55.0457 73.0707C54.47 72.4797 53.9451 71.8272 53.4782 71.1221C53.2941 70.816 53.0957 70.5214 52.8839 70.2396Z" fill="#455A64"/>
<path d="M40.0741 24.1035L38.0488 27.2738L29.8081 30.9114L31.6212 44.2781L33.3524 58.1154L32.2791 79.1069H58.4202L55.7005 52.2801L57.1832 29.97L50.3856 27.26L48.33 24.4046L40.0741 24.1035Z" fill="#FF003D"/>
<path d="M39.2737 25.3702C39.2737 25.3702 41.4203 37.484 42.5148 40.9001C43.6093 44.3162 46.0045 51.4598 46.1197 51.6052C46.2349 51.7505 48.8302 45.0568 49.2183 41.5196C49.6064 37.9824 49.7065 32.1089 49.7065 30.9114C49.7065 29.7139 48.709 24.9341 48.709 24.9341L48.33 24.4046L40.0741 24.1173L39.2737 25.3702Z" fill="#E0E0E0"/>
<path d="M57.1831 29.97C58.2424 30.8091 59.1088 31.9275 59.7087 33.2303C60.3333 34.7255 65.4026 44.5619 65.4026 44.5619L71.1996 35.307L76.2295 38.9999C76.2295 38.9999 70.0111 51.0652 69.335 52.2282C68.6588 53.3911 65.5815 56.3399 62.9225 54.0175C60.2635 51.6951 56.2523 43.7762 56.2523 43.7762L57.1831 29.97Z" fill="#FF003D"/>
<path d="M48.3421 25.2525L49.0303 10.6641C49.3335 6.51082 47.4871 2.8663 43.8519 2.63095H43.5183C40.129 2.63307 37.3094 5.60633 37.0392 9.46311C36.7845 13.0419 36.545 17.0256 36.5723 18.9499C36.6177 22.9371 40.1105 23.5532 40.1105 23.5532C40.1105 23.6743 40.0134 25.5398 40.0134 25.5398L45.2223 29.745L48.3421 25.2525Z" fill="#FFBF9D"/>
<path d="M40.1105 23.5531C41.7242 23.5466 43.3025 23.0121 44.6583 22.0129C44.6583 22.0129 43.5517 24.9272 40.065 24.5707L40.1105 23.5531Z" fill="#FF9A6C"/>
<path d="M42.8665 11.5744C42.9302 11.6574 43.3546 11.3252 43.9398 11.3529C44.5249 11.3805 44.9342 11.744 45.001 11.6644C45.0677 11.5848 44.9706 11.4775 44.7917 11.3182C44.5478 11.1036 44.2507 10.9825 43.9428 10.9721C43.6391 10.957 43.3393 11.0541 43.0878 11.249C42.912 11.3875 42.8362 11.5363 42.8665 11.5744Z" fill="#263238"/>
<path d="M42.9938 13.6752C42.992 13.9668 43.1934 14.2074 43.4486 14.2186C43.57 14.2291 43.6899 14.1831 43.7812 14.0913C43.8726 13.9994 43.9275 13.8694 43.9337 13.7306C43.9371 13.4389 43.7344 13.1982 43.4789 13.1907C43.3579 13.1793 43.2379 13.2244 43.1465 13.3157C43.0551 13.407 43 13.5367 42.9938 13.6752Z" fill="#263238"/>
<path d="M41.1201 16.0703C40.8368 15.9695 40.5434 15.9102 40.2469 15.8938C40.1105 15.8938 39.9801 15.8454 39.9437 15.7381C39.9316 15.5765 39.9633 15.4145 40.0347 15.2743C40.162 14.897 40.2955 14.499 40.4379 14.0837C40.9989 12.3877 41.4051 10.9929 41.3475 10.9687C41.2899 10.9445 40.7836 12.3012 40.2227 13.9971C40.0893 14.4159 39.9589 14.814 39.8376 15.1947C39.7511 15.384 39.7253 15.602 39.7649 15.8108C39.8066 15.9214 39.8903 16.0043 39.9923 16.0357C40.0672 16.0603 40.1447 16.0731 40.2227 16.0738C40.5207 16.1177 40.8224 16.1166 41.1201 16.0703Z" fill="#263238"/>
<path d="M42.8604 9.47C42.9211 9.61537 43.385 9.49077 43.9428 9.50462C44.5007 9.51845 44.9646 9.64652 45.0252 9.50462C45.0525 9.43539 44.9646 9.30041 44.7706 9.15851C44.5165 9.00422 44.2336 8.92229 43.9459 8.91969C43.6587 8.91257 43.3744 8.98627 43.1181 9.13428C42.912 9.26926 42.8332 9.40078 42.8604 9.47Z" fill="#E0E0E0"/>
<path d="M37.5728 9.71576C37.6243 9.84383 38.0882 9.74691 38.64 9.77114C39.1918 9.79537 39.6405 9.9165 39.7072 9.79537C39.7376 9.73653 39.6527 9.62231 39.4677 9.51156C39.2169 9.37301 38.9429 9.29748 38.6643 9.29005C38.3824 9.27783 38.1015 9.33325 37.8396 9.45272C37.6425 9.54963 37.5485 9.65692 37.5728 9.71576Z" fill="#E0E0E0"/>
<path d="M48.7484 13.6164C48.806 13.5852 51.1466 12.803 51.0739 15.5269C51.0011 18.2508 48.618 17.6036 48.615 17.5274C48.612 17.4513 48.7484 13.6164 48.7484 13.6164Z" fill="#FFBF9D"/>
<path d="M49.3729 16.5203C49.3729 16.5203 49.4124 16.5549 49.4821 16.5964C49.5796 16.6393 49.6877 16.6393 49.7853 16.5964C50.0399 16.4995 50.2643 16.0495 50.2886 15.5581C50.3013 15.322 50.2681 15.0856 50.1915 14.8659C50.1496 14.6917 50.0368 14.5513 49.8884 14.4886C49.7907 14.4542 49.6856 14.5055 49.6397 14.6098C49.6034 14.6859 49.6185 14.7413 49.6064 14.7447C49.5943 14.7482 49.5549 14.6963 49.5791 14.5855C49.5919 14.5182 49.6266 14.4588 49.6761 14.4194C49.7431 14.3629 49.8276 14.3404 49.9096 14.3571C50.1064 14.4101 50.2655 14.5748 50.331 14.7932C50.426 15.0329 50.4687 15.2954 50.4553 15.5581C50.425 16.1084 50.1521 16.6137 49.8156 16.7141C49.6848 16.753 49.5455 16.7225 49.4366 16.631C49.376 16.586 49.3638 16.5272 49.3729 16.5203Z" fill="#FF9A6C"/>
<path d="M52.1896 9.47694C51.756 8.4767 51.7106 7.32416 51.5074 6.23046C51.3043 5.13676 50.8525 3.98768 49.9581 3.54121H49.9369C49.1365 3.09472 48.1178 3.00474 47.3992 3.6035C47.3204 2.17754 46.3077 0.969625 45.1222 0.509301C43.9368 0.0489811 42.0024 0.111279 40.7896 0.547374C39.8801 0.893484 38.9493 1.65838 37.8184 2.81092C37.3436 3.295 36.9045 3.82287 36.5056 4.38917L35.22 8.00599L35.9992 10.0203C36.0428 10.1597 36.0934 10.2961 36.1508 10.4287L36.7026 14.582C36.827 13.471 37.0058 9.58424 37.121 8.47323C38.6096 8.54344 40.059 7.91861 41.1353 6.74269C41.7113 6.10932 42.1843 5.29943 42.9241 4.95332C43.8761 4.5103 44.9494 4.97755 45.8954 5.44479L45.8559 5.39634C46.3452 5.70648 46.7784 6.11991 47.1324 6.61464C46.774 8.80219 46.8329 11.0522 47.3052 13.2114C47.3749 13.5333 47.5841 14.2048 47.8479 14.3467C48.3664 14.627 48.5513 14.0006 48.8939 13.7133C49.192 13.5144 49.5435 13.4467 49.8823 13.5229C50.2084 12.6202 50.4858 11.6955 50.7131 10.7541C51.0292 10.8947 51.3697 10.9492 51.7075 10.9133L51.4528 10.048C51.574 10.1657 51.7155 10.253 51.8682 10.3041C52.025 10.3522 52.1915 10.2847 52.2866 10.1345C52.3897 9.92689 52.2805 9.68461 52.1896 9.47694Z" fill="#E0E0E0"/>
<path d="M46.2804 3.97729C46.3977 4.0974 46.5061 4.2282 46.6048 4.3684C46.8557 4.76942 47.0103 5.23831 47.0535 5.7286C47.0927 6.06474 47.1008 6.40463 47.0778 6.7427C47.0566 7.10611 47.0081 7.49721 46.9565 7.90561C46.8974 8.33536 46.8609 8.76878 46.8474 9.20352C46.846 9.43493 46.8581 9.66618 46.8837 9.89574C46.899 10.1424 46.9689 10.3806 47.0869 10.5879C47.1993 10.7564 47.3819 10.8436 47.5659 10.8164C47.7387 10.7942 47.8999 10.7064 48.0237 10.5672C48.2321 10.2856 48.3693 9.94462 48.4209 9.58078H48.3482C48.433 9.8886 48.5577 10.1802 48.718 10.446C48.8733 10.6936 49.1053 10.8644 49.3669 10.9237C49.4895 10.9473 49.6154 10.9317 49.7307 10.8787C49.8371 10.8248 49.9276 10.7371 49.9914 10.626C50.0501 10.5227 50.0826 10.403 50.0854 10.2799C50.0893 10.1658 50.057 10.054 49.9945 9.96495L49.9551 9.99957C50.1453 10.2844 50.386 10.5203 50.6615 10.6918C50.7342 10.737 50.8091 10.7775 50.8858 10.8129C50.9121 10.8266 50.9395 10.837 50.9677 10.8441C50.9435 10.8268 50.9182 10.8118 50.8919 10.7991C50.8167 10.7595 50.7437 10.7145 50.6736 10.6641C50.4093 10.4871 50.1784 10.2518 49.9945 9.97187L49.9551 10.0065C50.0668 10.1831 50.0668 10.4217 49.9551 10.5983C49.8997 10.6985 49.8179 10.776 49.7216 10.8198C49.6178 10.8678 49.5039 10.8799 49.3941 10.8544C49.1487 10.7996 48.9313 10.6384 48.7878 10.4045C48.6355 10.1421 48.5161 9.8567 48.433 9.55654L48.3906 9.42848L48.3603 9.56347C48.3062 9.9069 48.1757 10.2287 47.9813 10.498C47.8693 10.6222 47.7242 10.7002 47.5689 10.7195C47.4135 10.7433 47.2587 10.6708 47.1627 10.5291C47.055 10.3352 46.9905 10.1142 46.9747 9.88534C46.9479 9.65594 46.9367 9.42451 46.9413 9.19313C46.9516 8.76302 46.986 8.33412 47.0444 7.90907C47.0929 7.4972 47.1384 7.1061 47.1596 6.73577C47.178 6.38914 47.1658 6.04129 47.1233 5.69744C47.0764 5.19436 46.9097 4.71554 46.6412 4.31301C46.5379 4.1792 46.416 4.06576 46.2804 3.97729Z" fill="white"/>
<path d="M35.2958 6.95037L35.3201 6.97806L35.402 7.05767C35.4472 7.10134 35.4948 7.14179 35.5444 7.1788C35.6087 7.23222 35.6767 7.27967 35.7476 7.32071C36.1973 7.60236 36.7021 7.74996 37.215 7.74988C37.9769 7.75437 38.7235 7.50672 39.3647 7.03689C40.1404 6.45705 40.8038 5.70202 41.3142 4.81835C41.5961 4.35802 41.8326 3.88386 42.0903 3.43392C42.3263 3.01592 42.6132 2.63835 42.9423 2.31253C43.2404 2.01328 43.5987 1.80283 43.9853 1.69992C44.161 1.66098 44.341 1.65281 44.5189 1.67569C44.6826 1.69927 44.8427 1.74818 44.9949 1.82105C45.4597 2.04758 45.833 2.46508 46.0409 2.9909C46.1096 3.18669 46.1575 3.39121 46.1834 3.60005V3.55852C46.1834 3.5239 46.1834 3.48237 46.1834 3.43392C46.166 3.27728 46.1314 3.12378 46.0803 2.97705C45.9955 2.74465 45.8765 2.53045 45.7286 2.34368C45.5341 2.09274 45.2941 1.89315 45.0252 1.75876C44.8678 1.68375 44.7028 1.63142 44.534 1.60301C44.3502 1.57672 44.1638 1.5849 43.9822 1.62724C43.5824 1.72652 43.2111 1.93964 42.9029 2.24677C42.5664 2.58316 42.2734 2.97237 42.0327 3.40276C41.775 3.84232 41.5355 4.31649 41.2566 4.7872C40.7514 5.65951 40.0977 6.40693 39.3343 6.98498C38.7024 7.45329 37.9654 7.70327 37.212 7.70488C36.707 7.71015 36.2085 7.57471 35.7597 7.31032C35.5986 7.20161 35.4437 7.08139 35.2958 6.95037Z" fill="white"/>
<path d="M37.5516 11.3875C37.6153 11.474 38.0397 11.1383 38.6219 11.1694C39.204 11.2006 39.6163 11.5605 39.683 11.4775C39.7497 11.3944 39.6527 11.2906 39.4738 11.1314C39.231 10.9168 38.9348 10.7956 38.6279 10.7853C38.3229 10.7707 38.0219 10.869 37.7699 11.0656C37.5849 11.2006 37.5182 11.3494 37.5516 11.3875Z" fill="#263238"/>
<path d="M38.1701 13.4607C38.1682 13.7523 38.3696 13.9928 38.6248 14.004C38.7462 14.0145 38.8661 13.9686 38.9575 13.8767C39.0488 13.7848 39.1038 13.6548 39.11 13.516C39.1121 13.2295 38.9178 12.991 38.6673 12.9726C38.5441 12.9593 38.4215 13.0037 38.3277 13.0958C38.2338 13.1879 38.1769 13.3196 38.1701 13.4607Z" fill="#263238"/>
<path d="M36.8239 3.95654C36.5207 4.38226 36.0296 4.75951 35.5444 4.64876C35.3705 4.59365 35.2003 4.52425 35.0351 4.44109C34.8593 4.54493 34.8653 5.21291 34.9714 5.40673C35.0746 5.56826 35.1892 5.7199 35.314 5.86014C34.7258 6.17163 34.2134 5.96397 33.6192 5.66978C33.6737 6.89146 34.2957 7.98688 35.2504 8.54247C35.5392 8.74476 35.8954 8.77693 36.2084 8.62899C36.4476 8.42784 36.6137 8.1335 36.6754 7.8018C37.0071 6.62927 37.2108 5.41448 37.2817 4.18497L36.8239 3.95654Z" fill="#E0E0E0"/>
<path d="M40.92 18.2854C40.92 18.3096 41.0473 18.3754 41.2777 18.3719C41.9029 18.3664 42.4477 17.8847 42.6088 17.1952C42.6664 16.939 42.6421 16.7764 42.6239 16.7764C42.6057 16.7764 42.5754 16.9287 42.4966 17.1502C42.2968 17.7389 41.832 18.1567 41.2838 18.2404C41.0594 18.2715 40.923 18.2577 40.92 18.2854Z" fill="#263238"/>
<path d="M29.8051 30.9114C29.4776 31.0049 28.9804 32.0397 27.7464 35.5216C26.5124 39.0034 20.9004 53.4084 20.9004 54.5367C20.9004 55.665 20.9823 57.4544 23.8686 58.7731C26.755 60.0917 35.0018 60.9397 35.0018 60.9397L35.3322 54.6302L29.1138 52.1313L32.5005 43.8801L29.8051 30.9114Z" fill="#FF003D"/>
<path d="M44.4734 44.5619C44.431 44.7003 40.5319 51.6052 40.5319 51.6052L41.8296 52.5189L45.3951 45.3026L44.4734 44.5619Z" fill="#263238"/>
<path d="M44.5037 40.6266L44.8039 41.658L45.6255 41.5853L47.2718 42.6271L47.4113 43.5651L48.0662 43.5339L48.4512 43.7762L46.9019 46.725L46.4835 46.4066L46.3774 45.486H45.5012L43.8913 44.3438L43.8033 43.5651L42.7513 43.9458L42.5057 43.7866L44.2581 40.6266H44.5037Z" fill="#263238"/>
<path d="M47.4113 43.5651C47.3525 43.9397 47.2209 44.2945 47.0263 44.6034C46.7443 45.1502 46.4199 45.5137 46.3774 45.4721C46.335 45.4306 46.617 45.0464 46.8898 44.5099C47.0402 44.1789 47.2147 43.8628 47.4113 43.5651Z" fill="#455A64"/>
<path d="M44.8039 41.6581C44.7448 42.0331 44.6121 42.3881 44.4158 42.6964C44.1369 43.2432 43.8094 43.6066 43.77 43.5651C43.925 43.2337 44.0961 42.9125 44.2824 42.6029C44.4315 42.271 44.606 41.9549 44.8039 41.6581Z" fill="#455A64"/>
<path d="M48.0662 43.5339C47.8725 44.0538 47.6316 44.5491 47.3476 45.0118C47.1079 45.5068 46.8223 45.9709 46.4957 46.3962C46.6894 45.8764 46.9302 45.3811 47.2142 44.9184C47.454 44.4234 47.7396 43.9593 48.0662 43.5339Z" fill="#455A64"/>
<path d="M44.5128 40.6855C44.2286 41.9257 43.6231 43.0391 42.7755 43.88C42.7392 43.842 43.2455 43.2224 43.7215 42.3364C44.1975 41.4504 44.4673 40.6647 44.5128 40.6855Z" fill="#455A64"/>
<path d="M45.8863 52.1313C45.8352 52.0475 45.7896 51.9596 45.7498 51.8682L45.386 51.0999C45.0646 50.4077 44.6159 49.442 44.0641 48.2514L39.7649 38.82C38.6279 36.3072 37.5667 33.9537 36.6663 31.9567L36.645 31.9117L36.6723 31.8736L38.0609 29.9285L38.0913 30.0323L36.4631 29.5858H36.3964L36.4358 29.5235C37.3848 28.0456 38.0003 27.2323 38.0488 27.2911C38.0488 27.2911 38.0033 27.3327 37.9306 27.4296C37.8578 27.5265 37.7517 27.6719 37.6274 27.8657C37.3636 28.2568 36.9877 28.8382 36.5207 29.5962L36.4935 29.5166L38.1276 29.9354L38.2186 29.9596L38.158 30.0427L36.7876 32.0017V31.9186L39.9074 38.7681L44.152 48.2237C44.6857 49.4247 45.1192 50.4042 45.4285 51.0964L45.768 51.8821C45.8137 51.9611 45.8533 52.0444 45.8863 52.1313Z" fill="#263238"/>
<path d="M35.3322 54.6301C35.3322 54.6301 36.3692 51.5913 36.6117 51.131C36.8543 50.6707 38.4763 49.6497 38.8796 49.6497C39.2828 49.6497 42.2844 51.4979 42.3238 51.9167C42.3632 52.3355 42.245 53.0727 41.7993 53.0727C41.3536 53.0727 40.5016 52.5639 40.5016 52.5639L42.3208 54.0452C42.3208 54.0452 42.1904 55.2462 41.5446 55.1078C40.8988 54.9693 39.7588 54.554 39.7588 54.554L41.6234 56.0803C41.6234 56.0803 40.7321 57.1429 40.247 56.8175C39.8653 56.5778 39.4726 56.3618 39.0706 56.1703L40.247 57.3748C40.247 57.3748 40.0044 58.2539 39.5981 58.022C39.1919 57.7901 38.3429 57.2813 38.3429 57.2813C38.3429 57.2813 37.9366 59.0119 37.4091 59.8252C36.8815 60.6386 35.0109 60.5174 35.0109 60.5174L35.3322 54.6301Z" fill="#FFBF9D"/>
<path d="M46.4957 52.1312C46.5213 52.0433 46.5528 51.9577 46.5896 51.8751L46.8929 51.1621C47.0232 50.8437 47.1778 50.4699 47.3598 50.0338C47.5417 49.5977 47.7206 49.0716 47.9298 48.5109C49.0004 45.5642 49.8573 42.5221 50.4917 39.4152C51.1092 36.4907 51.5078 33.5115 51.6832 30.5099L51.7045 30.5653L50.3826 29.3262L50.3432 29.2916L50.3765 29.2501C50.6373 28.9316 50.8616 28.6582 51.0587 28.4229V28.4713L50.5463 27.5784L50.422 27.343C50.3937 27.2899 50.3815 27.2623 50.3856 27.2599C50.4054 27.2816 50.4227 27.306 50.4371 27.3326C50.4765 27.3915 50.522 27.4641 50.5766 27.5541L51.1072 28.4298L51.1224 28.454L51.1042 28.4782L50.4371 29.3262V29.2501L51.7742 30.4649L51.7985 30.4857V30.5168C51.6546 33.5321 51.2679 36.5259 50.6433 39.4602C50.0091 42.5781 49.1335 45.6254 48.0268 48.5663C47.8085 49.1235 47.6084 49.6289 47.4356 50.0788C47.2627 50.5287 47.0778 50.8818 46.9414 51.1967L46.623 51.8889C46.5872 51.9741 46.5446 52.0552 46.4957 52.1312Z" fill="#263238"/>
<path d="M56.7405 35.7361C56.7563 35.8995 56.7563 36.0643 56.7405 36.2276C56.7223 36.5737 56.7011 37.0271 56.6768 37.5636C56.6162 38.6919 56.5222 40.2459 56.41 41.9661C56.2978 43.6862 56.1856 45.2368 56.1068 46.3616C56.0613 46.8981 56.025 47.3446 55.9946 47.6942C55.9886 47.8578 55.9673 48.0203 55.931 48.1787C55.9184 48.0152 55.9184 47.8508 55.931 47.6872C55.9461 47.3411 55.9674 46.8912 55.9946 46.3547C56.0523 45.2264 56.1462 43.6689 56.2615 41.9522C56.3767 40.2355 56.4858 38.6781 56.5646 37.5532C56.6101 37.0167 56.6495 36.5703 56.6798 36.2207C56.6888 36.0576 56.709 35.8956 56.7405 35.7361Z" fill="#263238"/>
<path d="M29.1137 52.1313C29.1137 52.1624 28.8106 52.017 28.3436 51.8994C27.7202 51.7551 27.0751 51.7908 26.4669 52.0032C25.8628 52.229 25.3192 52.6268 24.8873 53.1592C24.5538 53.5676 24.4022 53.8756 24.3749 53.8514C24.3476 53.8272 24.3991 53.7649 24.4658 53.623C24.5626 53.4257 24.6753 53.2392 24.8024 53.0657C25.6675 51.8833 27.0549 51.381 28.3588 51.7782C28.5507 51.8338 28.7375 51.9103 28.9167 52.0066C29.0531 52.0759 29.1198 52.1209 29.1137 52.1313Z" fill="#263238"/>
<path d="M30.2235 35.2308C30.2659 35.2308 30.7995 38.7196 31.415 43.0425C32.0305 47.3654 32.4943 50.8749 32.4519 50.8818C32.4095 50.8887 31.8758 47.393 31.2604 43.0702C30.6449 38.7473 30.178 35.2378 30.2235 35.2308Z" fill="#263238"/>
<path d="M55.4792 69.1044L22.6558 69.3605L18.1929 52.7612L18.7477 51.6052L59.2448 51.7263L59.7663 52.7612L55.4792 69.1044Z" fill="#455A64"/>
<path d="M28.1163 60.9396V145.456H51.565L50.428 60.9396H28.1163Z" fill="#455A64"/>
<path d="M50.607 71.7279C50.6038 71.6621 50.6038 71.5963 50.607 71.5306L50.5857 70.9526C50.5857 70.4369 50.5554 69.6997 50.5312 68.7686C50.4918 66.872 50.4372 64.1758 50.3735 60.9397L50.4402 61.0158H39.9468L28.1224 60.9985L28.186 60.9258C28.186 63.7432 28.1648 66.0586 28.1588 67.6853C28.1588 68.4814 28.1588 69.1113 28.1406 69.5508C28.1406 69.7585 28.1406 69.9177 28.1406 70.0388C28.1444 70.0953 28.1444 70.152 28.1406 70.2084C28.1367 70.152 28.1367 70.0953 28.1406 70.0388C28.1406 69.9177 28.1406 69.7585 28.1406 69.5508C28.1406 69.1113 28.1406 68.4814 28.1224 67.6853C28.1224 66.0586 28.1224 63.7432 28.0951 60.9258V60.8531H28.1588L39.9832 60.8358H50.4766H50.4918V60.9085C50.5342 64.1481 50.5706 66.8408 50.5948 68.7375C50.5948 69.672 50.5948 70.4092 50.613 70.9249V71.534C50.6147 71.5987 50.6127 71.6635 50.607 71.7279Z" fill="#263238"/>
<g opacity="0.3">
<path d="M50.428 60.9397L54.7364 69.1113H50.5645L50.428 60.9397Z" fill="black"/>
</g>
<path d="M59.6966 52.8442C59.6966 52.8927 50.4614 52.9342 39.0796 52.9342C27.6979 52.9342 18.4627 52.8927 18.4627 52.8442C18.4627 52.7958 27.6948 52.7542 39.0796 52.7542C50.4644 52.7542 59.6966 52.7889 59.6966 52.8442Z" fill="#263238"/>
<path d="M46.4653 52.0966C46.4653 52.0966 46.4653 52.0724 46.4502 52.0205C46.435 51.9686 46.4502 51.8786 46.4289 51.7886C46.4289 51.5671 46.3895 51.2694 46.3592 50.8956C46.3046 50.1031 46.2228 48.9851 46.1257 47.6145C45.9256 44.8457 45.6437 41.0143 45.292 36.7918C45.107 34.6943 44.9342 32.6938 44.7766 30.8768L44.913 30.9079L43.7002 33.4103L43.6548 33.5003L43.5941 33.4207L40.8411 29.835L40.0862 28.8313L39.8891 28.5613C39.8658 28.5329 39.8455 28.5016 39.8285 28.4679C39.8285 28.4679 39.8558 28.4921 39.9043 28.5475L40.1135 28.8001L40.8957 29.7762L43.6911 33.3238H43.585C43.9579 32.545 44.3582 31.704 44.7978 30.8145L44.91 30.5791L44.9342 30.8456C45.107 32.6592 45.2859 34.6528 45.4587 36.7606C45.8135 40.9866 46.0651 44.8145 46.247 47.5903C46.3349 48.9748 46.3956 50.0996 46.435 50.8783C46.435 51.2521 46.4623 51.5498 46.4744 51.7713V52.0032C46.476 52.0347 46.4729 52.0663 46.4653 52.0966Z" fill="#263238"/>
<path d="M49.479 29.0251C49.4495 29.1324 49.4077 29.2348 49.3547 29.3297C49.2638 29.5166 49.1304 29.79 48.9636 30.1223C48.6241 30.7868 48.1511 31.7005 47.6175 32.7042L47.3476 33.213L47.293 33.3134L47.2233 33.2268C46.6169 32.4654 46.0803 31.7801 45.7074 31.2817C45.4916 31.0297 45.3023 30.7497 45.1434 30.4476C45.1434 30.4476 45.2101 30.5133 45.3193 30.6449L45.7862 31.2021L47.3385 33.1057H47.2142C47.3021 32.943 47.3931 32.7596 47.4841 32.5969C48.0146 31.5932 48.5058 30.6899 48.8666 30.0426C49.0485 29.7173 49.1971 29.4577 49.3002 29.2777C49.3498 29.1849 49.4099 29.1 49.479 29.0251Z" fill="#263238"/>
<path d="M44.8069 29.2224C44.8069 29.2224 42.4572 27.1042 42.1085 27.4918C41.7599 27.8795 40.8958 28.949 41.1504 30.5099C41.4051 32.0708 41.7023 32.2993 41.7023 32.2993L44.913 30.6933L44.8069 29.2224Z" fill="#455A64"/>
<path d="M45.0343 29.2674L45.2314 30.683C45.2314 30.683 47.4113 32.4758 47.9601 31.9774C48.5089 31.479 48.5119 29.8558 48.4816 29.1601C48.4512 28.4644 48.3967 26.7823 47.5265 27.0488C46.6564 27.3153 45.0343 29.2674 45.0343 29.2674Z" fill="#455A64"/>
<path d="M46.0864 29.9008C46.0864 30.6405 45.5611 31.2402 44.913 31.2402C44.265 31.2402 43.7397 30.6405 43.7397 29.9008C43.7397 29.161 44.265 28.5613 44.913 28.5613C45.5604 28.5632 46.0847 29.1618 46.0864 29.9008Z" fill="#455A64"/>
<path d="M46.0863 29.9008C46.0863 29.9008 46.0712 29.7831 46.0197 29.5823C45.9465 29.304 45.7952 29.0607 45.5891 28.8901C45.1318 28.5042 44.4926 28.5768 44.1109 29.058C43.7292 29.5393 43.7292 30.2726 44.1109 30.7538C44.4926 31.2351 45.1318 31.3077 45.5891 30.9218C45.7955 30.7515 45.9469 30.5082 46.0197 30.2296C46.0712 30.0323 46.0742 29.9111 46.0863 29.9111C46.115 30.0242 46.115 30.1442 46.0863 30.2573C46.032 30.567 45.8825 30.8444 45.6649 31.0394C45.3338 31.3371 44.8922 31.4207 44.4946 31.261C43.9982 31.0604 43.6663 30.5244 43.6663 29.9233C43.6663 29.3221 43.9982 28.7862 44.4946 28.5855C44.8919 28.4217 45.3352 28.5056 45.6649 28.8071C45.8823 29.0009 46.0318 29.2771 46.0863 29.5858C46.1104 29.689 46.1104 29.7976 46.0863 29.9008Z" fill="#263238"/>
<path d="M110.554 125.724L101.682 126.274L102.167 117.584C102.167 117.584 101.561 117.483 101.291 113.738C101.021 109.993 100.518 103.639 100.518 103.639C104.206 101.49 108.624 101.787 112.067 104.414L112.579 104.805L110.554 125.724Z" fill="#AA6550"/>
<path d="M111.809 109.322C111.864 109.291 114.022 108.388 114.101 110.956C114.18 113.524 111.903 113.084 111.897 113.008C111.891 112.932 111.809 109.322 111.809 109.322Z" fill="#AA6550"/>
<path d="M101.24 109.606C101.182 109.582 99.1447 109.118 99.3691 111.682C99.5934 114.247 101.795 113.455 101.795 113.382C101.795 113.309 101.24 109.606 101.24 109.606Z" fill="#AA6550"/>
<path d="M112.521 108.979C112.312 111.153 112.443 112.274 112.218 113.731C111.86 116.04 110.975 117.854 109.253 119.124C107.531 120.394 105.105 120.56 103.477 119.124C102.346 118.137 101.519 116.985 101.264 115.386C101.009 113.787 100.685 110.942 100.579 109.322C100.391 106.397 100.054 103.615 100.054 103.615L107.285 101.538L111.618 104.068L112.521 108.979Z" fill="#263238"/>
<path d="M100.861 107.097C100.435 107.221 99.9817 107.115 99.6328 106.809C99.2781 106.522 99.1114 105.39 99.1114 105.39C99.1114 105.39 98.1775 104.861 98.0532 104.352C97.9026 103.832 98.0197 103.26 98.3564 102.871C98.0788 101.906 98.286 100.845 98.8964 100.106C99.5067 99.3678 100.422 99.0698 101.282 99.3299C101.602 98.5465 102.231 97.9844 102.973 97.8169C103.716 97.6493 104.485 97.8964 105.042 98.482C105.694 97.2194 106.965 96.5524 108.229 96.8092C109.493 97.066 110.484 98.1926 110.714 99.6345C111.255 99.1158 112.038 99.0925 112.602 99.5782C113.166 100.064 113.362 100.93 113.073 101.666C113.594 101.514 114.14 101.771 114.416 102.298C114.691 102.825 114.63 103.496 114.265 103.947C114.071 104.193 113.789 104.38 113.731 104.702C113.728 105 113.785 105.295 113.898 105.563C114.002 106.239 113.757 106.923 113.267 107.322C112.783 107.704 112.238 107.976 111.663 108.121C111.033 108.391 110.357 108.495 109.687 108.426C109.026 108.301 108.377 107.733 108.34 106.958C106.974 108.112 105.062 107.888 103.929 106.442C103.69 107.088 103.166 107.538 102.557 107.623C101.947 107.708 101.344 107.415 100.976 106.854" fill="#263238"/>
<path d="M105.624 120.702C105.624 120.761 106.203 120.882 106.915 120.733C107.628 120.584 108.128 120.249 108.128 120.193C108.128 120.138 107.573 120.366 106.891 120.501C106.209 120.636 105.63 120.633 105.624 120.702Z" fill="#263238"/>
<path d="M111.666 107.623C111.666 107.623 111.733 107.81 111.554 108.045C111.446 108.181 111.306 108.279 111.151 108.329C110.951 108.378 110.749 108.41 110.545 108.426C110.307 108.46 110.082 108.567 109.893 108.734C109.666 108.948 109.414 109.124 109.144 109.256C108.473 109.529 107.727 109.399 107.158 108.91L107.279 108.91C107.035 109.262 106.704 109.523 106.33 109.661C105.815 109.859 105.251 109.797 104.778 109.492C104.354 109.22 104.031 108.783 103.868 108.26L104.005 108.287C103.694 108.702 103.23 108.925 102.753 108.889C102.148 108.831 101.641 108.344 101.485 107.675C101.46 107.587 101.452 107.493 101.461 107.401C101.531 107.73 101.674 108.033 101.876 108.28C102.11 108.556 102.426 108.721 102.762 108.741C103.192 108.76 103.605 108.55 103.881 108.173L103.968 108.052L104.017 108.201C104.172 108.676 104.471 109.072 104.86 109.319C105.291 109.591 105.802 109.645 106.27 109.467C106.613 109.338 106.915 109.098 107.14 108.775L107.194 108.696L107.264 108.758C107.785 109.205 108.467 109.327 109.083 109.083C109.344 108.961 109.589 108.798 109.811 108.599C110.021 108.423 110.268 108.316 110.526 108.287C110.73 108.28 110.932 108.258 111.133 108.221C111.276 108.185 111.408 108.105 111.515 107.99C111.598 107.889 111.651 107.76 111.666 107.623Z" fill="#455A64"/>
<path d="M102.107 106.287C102.027 106.165 101.969 106.028 101.934 105.882C101.817 105.487 101.776 105.068 101.813 104.653C101.857 104.029 102.069 103.436 102.419 102.954C103.168 101.982 104.363 101.636 105.427 102.081L105.321 102.123C105.596 101.608 106.036 101.235 106.549 101.085C106.952 100.969 107.378 101.005 107.761 101.188C108.008 101.306 108.231 101.481 108.416 101.701C108.487 101.774 108.544 101.864 108.583 101.964C108.338 101.678 108.044 101.454 107.719 101.306C107.358 101.155 106.965 101.136 106.594 101.251C106.128 101.399 105.728 101.743 105.475 102.213L105.439 102.286L105.369 102.255C104.99 102.099 104.584 102.048 104.184 102.106C103.554 102.187 102.973 102.529 102.549 103.068C102.215 103.518 102.004 104.07 101.943 104.656C101.89 105.207 101.946 105.764 102.107 106.287Z" fill="#455A64"/>
<path d="M106.042 106.979C105.993 106.905 105.956 106.822 105.933 106.733C105.854 106.5 105.797 106.257 105.763 106.01C105.709 105.635 105.733 105.25 105.836 104.888C105.979 104.435 106.284 104.072 106.676 103.892C106.879 103.801 107.101 103.782 107.313 103.84L107.203 103.94C107.2 103.55 107.306 103.169 107.507 102.853C107.664 102.602 107.872 102.398 108.113 102.258C108.268 102.163 108.436 102.102 108.61 102.078C108.732 102.078 108.798 102.078 108.798 102.078C108.58 102.143 108.369 102.238 108.171 102.362C107.959 102.508 107.78 102.707 107.646 102.943C107.475 103.232 107.386 103.574 107.391 103.923V104.068L107.279 104.04C107.102 103.996 106.917 104.013 106.749 104.089C106.405 104.25 106.135 104.565 106.003 104.961C105.899 105.293 105.863 105.649 105.9 105.999C105.948 106.602 106.073 106.969 106.042 106.979Z" fill="#455A64"/>
<path d="M107.661 112.634C107.676 112.634 107.564 112.894 107.213 113.077C107.008 113.185 106.783 113.233 106.558 113.216C106.273 113.199 106.001 113.078 105.782 112.87H105.903C105.856 112.922 105.806 112.97 105.754 113.015C105.504 113.222 105.198 113.323 104.89 113.299C104.641 113.28 104.403 113.175 104.208 112.998C103.877 112.693 103.823 112.378 103.841 112.378C103.859 112.378 103.965 112.634 104.284 112.88C104.464 113.019 104.673 113.099 104.89 113.112C105.158 113.121 105.422 113.029 105.639 112.849C105.684 112.81 105.728 112.768 105.769 112.724L105.827 112.659L105.891 112.717C106.248 113.044 106.729 113.134 107.158 112.953C107.334 112.866 107.503 112.759 107.661 112.634Z" fill="#455A64"/>
<path d="M108.14 114.645C108.162 114.645 108.158 114.815 108.058 115.05C107.923 115.362 107.694 115.607 107.413 115.742C107.132 115.873 106.819 115.886 106.53 115.78C106.315 115.694 106.212 115.58 106.227 115.559C106.242 115.538 106.361 115.597 106.567 115.638C106.828 115.695 107.099 115.665 107.346 115.552C107.591 115.432 107.801 115.235 107.952 114.984C108.068 114.797 108.113 114.638 108.14 114.645Z" fill="#455A64"/>
<path d="M131.246 111.741C131.466 111.561 131.771 111.608 131.941 111.849C132.214 112.271 132.493 115.22 132.493 115.22C132.615 115.604 132.705 116 132.762 116.403C132.811 116.905 131.189 119.657 131.189 119.657L128.46 116.379C128.46 116.379 127.893 116.345 127.808 115.929C127.75 115.414 127.729 114.894 127.745 114.375L128.809 113.392C128.809 113.392 128.221 113.088 128.124 112.762C128.075 112.517 128.095 112.26 128.181 112.029L131.246 111.741Z" fill="#AA6550"/>
<path d="M133.114 110.326C132.62 110.63 131.553 111.156 131.471 112.748C131.389 114.341 131.774 116.833 131.292 117.642C130.81 118.452 129.224 118.681 128.654 117.404C128.084 116.127 128.163 112.762 128.033 112.16C127.873 111.589 127.51 111.121 127.032 110.873C126.599 110.62 130.064 107.99 130.064 107.99L133.114 110.326Z" fill="#FF003D"/>
<path d="M127.969 124.918C127.969 124.918 127.693 120.148 127.717 119.47C127.742 118.792 127.793 117.597 128.324 116.656C128.632 116.105 128.868 115.506 129.024 114.877C129.064 114.759 129.057 112.78 129.348 112.108C129.64 111.437 129.955 111.492 130.216 111.624C130.476 111.755 130.655 112.247 130.579 112.915C130.496 113.937 130.465 114.965 130.489 115.992C130.51 116.985 132.353 117.535 132.353 117.535C132.353 117.535 131.477 120.65 131.444 121.1C131.41 121.55 131.95 125.122 131.95 125.122L129.439 126.094L127.969 124.918Z" fill="#AA6550"/>
<ellipse cx="6.32646" cy="7.19976" rx="6.32646" ry="7.19976" transform="matrix(0.992495 -0.122286 0.0941293 0.99556 122.66 110.928)" fill="#FF003D"/>
<path d="M118.643 126.274C118.643 126.274 119.316 125.499 122.721 129.327C124.61 131.452 127.829 135.332 127.829 135.332L127.814 122.042L131.453 121.104C131.453 121.104 133.548 137.398 133.484 139.447C133.378 142.825 132.362 145.078 129.415 144.795C126.468 144.511 119.14 137.592 119.14 137.592L118.643 126.274Z" fill="#AA6550"/>
<path d="M89.3941 141.797L87.9448 155.451H94.9728L95.6762 143.798L89.3941 141.797Z" fill="#AA6550"/>
<path d="M93.6115 126.274C91.8256 127.326 90.5743 129.272 90.2309 131.532C89.7246 134.744 88.1935 146.231 88.1935 146.231H97.0952L97.5166 136.658L93.6115 126.274Z" fill="#455A64"/>
<path d="M118.44 137.436L119.013 139.198L124.361 143.109L127.666 133.961C127.666 133.961 119.537 124.814 117.867 125.181L115.981 131.954L118.44 137.436Z" fill="#455A64"/>
<path d="M131.401 104.224C131.745 104.549 131.937 105.039 131.92 105.549C131.924 105.894 131.843 106.234 131.686 106.529C131.51 106.834 131.261 107.075 130.968 107.221C130.594 107.409 130.187 107.499 129.779 107.484C129.418 107.484 129.058 107.429 128.709 107.322C128.384 107.229 128.076 107.07 127.799 106.854L128.272 105.816C128.476 105.99 128.705 106.122 128.948 106.207C129.203 106.3 129.469 106.347 129.737 106.346C129.984 106.361 130.23 106.291 130.443 106.145C130.609 106.021 130.707 105.807 130.701 105.581C130.709 105.348 130.606 105.129 130.431 105.01C130.141 104.854 129.82 104.787 129.5 104.816H128.199L128.463 101.507H131.604V102.601H129.458L129.376 103.715H129.794C130.534 103.722 131.055 103.892 131.401 104.224Z" fill="white"/>
<path d="M112.4 124.443C108.467 123.965 104.506 123.863 100.558 124.139C100.185 124.139 94.1026 125.589 93.6115 126.274L95.6671 142.694L95.8399 155.32L119.264 155.451L118.634 125.374C117.848 124.931 116.86 125.008 112.4 124.443Z" fill="#455A64"/>
<path d="M118.658 127.911C118.703 127.911 118.831 131.078 118.961 134.986C119.092 138.894 119.134 142.067 119.092 142.071C119.049 142.074 118.919 138.904 118.788 134.993C118.658 131.082 118.616 127.911 118.658 127.911Z" fill="#263238"/>
<path d="M94.4876 130.12C94.5071 130.179 94.5193 130.24 94.524 130.303C94.5422 130.441 94.5665 130.615 94.5968 130.826C94.6544 131.279 94.7332 131.94 94.8211 132.757C94.997 134.391 95.2062 136.654 95.373 139.16C95.5397 141.666 95.6368 143.936 95.6761 145.584C95.7004 146.404 95.7125 147.072 95.7125 147.532V148.062C95.7197 148.123 95.7197 148.184 95.7125 148.245C95.6983 148.186 95.6912 148.124 95.6913 148.062C95.6913 147.92 95.6761 147.747 95.664 147.532C95.6428 147.048 95.6125 146.39 95.5791 145.587C95.5064 143.943 95.3911 141.676 95.2244 139.174C95.0576 136.671 94.8666 134.408 94.718 132.771C94.6453 131.975 94.5877 131.317 94.5453 130.833C94.527 130.621 94.5119 130.448 94.5028 130.307C94.4903 130.245 94.4852 130.182 94.4876 130.12Z" fill="#263238"/>
<path d="M131.725 138.769C131.497 138.593 131.282 138.395 131.083 138.177C130.698 137.803 130.173 137.287 129.552 136.741C128.93 136.194 128.378 135.723 127.966 135.384C127.733 135.216 127.514 135.025 127.311 134.813C127.565 134.938 127.806 135.095 128.03 135.28C128.457 135.592 129.036 136.052 129.649 136.599C130.261 137.146 130.789 137.682 131.165 138.084C131.371 138.29 131.559 138.519 131.725 138.769Z" fill="#7F4437"/>
<path d="M80.8745 96.208C81.0609 96.0041 81.355 96.0041 81.5415 96.208C81.8447 96.5541 82.451 99.323 82.451 99.323C82.6094 99.6688 82.7374 100.032 82.833 100.406C82.9361 100.874 81.7082 103.708 81.7082 103.708L78.7612 101.002C78.7612 101.002 78.2215 101.047 78.0942 100.655C77.9834 100.175 77.9064 99.6857 77.8638 99.1914L78.7733 98.1081C78.7733 98.1081 78.1821 97.9039 78.0548 97.6132C77.9839 97.3909 77.9754 97.149 78.0305 96.921L80.8745 96.208Z" fill="#FFBF9D"/>
<path d="M82.8573 94.8409C82.3783 95.1178 81.3413 95.5885 81.2383 97.1148C81.1352 98.6412 81.4353 101.022 80.9654 101.78C80.4955 102.538 78.9734 102.711 78.4519 101.483C77.9305 100.254 78.0821 97.0422 77.9699 96.4538C77.8301 95.9041 77.493 95.4477 77.0421 95.1974C76.6328 94.9447 79.9952 92.5255 79.9952 92.5255L82.8573 94.8409Z" fill="#FF003D"/>
<path d="M79.8769 109.381C79.8769 109.381 78.4398 104.67 78.3883 104.027C78.3367 103.383 78.2518 102.244 78.6399 101.278C78.8718 100.714 79.0301 100.113 79.1099 99.496C79.1311 99.3784 78.9067 97.5059 79.1099 96.8345C79.313 96.163 79.6192 96.1422 79.8769 96.2495C80.1346 96.3568 80.362 96.7756 80.362 97.4194C80.396 98.3993 80.482 99.376 80.6197 100.344C80.7471 101.279 81.6961 103.705 81.6961 103.705C81.6961 103.705 81.6688 104.76 81.6961 105.196C81.7233 105.633 82.8209 108.311 82.8209 108.311L80.7471 110.066L79.8769 109.381Z" fill="#FFBF9D"/>
<path d="M58.7446 125.873C63.3798 124.604 68.2264 124.754 72.7944 126.309C73.7313 126.627 74.1315 124.959 73.1976 124.641C68.3651 123.008 63.241 122.858 58.3413 124.205C57.3923 124.468 57.7956 126.136 58.7446 125.873Z" fill="#FF003D"/>
<path d="M64.2171 97.6271L64.4112 97.5682C65.0438 96.3563 66.1689 95.5899 67.4036 95.5297C68.634 95.4909 69.8295 95.9984 70.7387 96.9452C71.3724 97.5821 71.8696 98.3747 72.5033 99.0219C73.137 99.6691 73.9798 100.133 74.8045 99.9356C74.9076 100.282 74.3315 100.493 74.3679 100.86C74.4065 101.036 74.5373 101.166 74.6954 101.185C74.9203 101.208 75.1466 101.208 75.3715 101.185C75.6023 101.168 75.8174 101.319 75.9081 101.562C75.9289 101.687 75.9206 101.816 75.8839 101.936C75.6673 103.048 75.2061 104.078 74.5438 104.93C73.8642 105.782 72.8611 106.199 71.8605 106.044C71.0814 105.878 70.4295 105.293 69.811 104.729L66.2879 101.507C65.7279 101.039 65.2243 100.488 64.7902 99.8698C64.3441 99.2398 64.1377 98.4321 64.2171 97.6271Z" fill="#263238"/>
<path d="M64.9509 97.8382C64.4766 97.3843 63.9143 97.0663 63.3106 96.9106C62.7011 96.7621 62.0649 96.9006 61.5461 97.2948C61.0822 97.679 60.7972 98.2743 60.4698 98.8142C60.1423 99.3541 59.7087 99.8733 59.1418 99.9667C59.0398 99.9682 58.9406 100.004 58.8568 100.071C58.7294 100.209 58.8234 100.482 58.9841 100.565C59.1545 100.629 59.3383 100.629 59.5086 100.565C59.2281 100.951 58.8372 101.211 58.405 101.299C58.4604 101.536 58.5962 101.738 58.7823 101.86C58.9683 101.982 59.1894 102.014 59.3965 101.95C59.2046 102.702 59.0956 103.479 59.0721 104.262C59.0494 105.051 59.2838 105.822 59.73 106.425C60.2454 107.058 61.0792 107.412 61.3035 108.235" fill="#263238"/>
<path d="M69.8959 125.433L60.7305 125.298L61.7522 116.39C61.7522 116.39 61.1277 116.237 61.0852 112.361C61.0428 108.484 60.8881 101.895 60.8881 101.895C64.8189 99.9663 69.356 100.618 72.7459 103.597L73.2492 104.04L69.8959 125.433Z" fill="#FFBF9D"/>
<path d="M72.182 108.806C72.2396 108.779 74.5165 108.021 74.4407 110.672C74.3649 113.323 72.0516 112.69 72.0486 112.614C72.0455 112.537 72.182 108.806 72.182 108.806Z" fill="#FFBF9D"/>
<path d="M61.2793 108.256C61.2216 108.225 59.1569 107.588 59.2236 110.239C59.2903 112.89 61.6158 112.257 61.6158 112.181C61.6158 112.105 61.2793 108.256 61.2793 108.256Z" fill="#FFBF9D"/>
<path d="M72.9278 108.512C72.5822 110.734 72.6519 111.901 72.3214 113.382C71.8121 115.732 70.7903 117.535 68.9378 118.702C67.0853 119.868 64.581 119.854 62.9892 118.259C61.8856 117.151 61.1034 115.898 60.9397 114.23C60.776 112.562 60.3333 109.433 60.3333 107.754C60.3151 104.729 60.403 102.016 60.403 102.016L67.9828 100.451L72.3032 103.376L72.9278 108.512Z" fill="#263238"/>
<path d="M65.1237 120.041C65.1237 120.103 65.7088 120.269 66.4516 120.176C67.1944 120.083 67.7432 119.771 67.719 119.716C67.6947 119.66 67.1368 119.847 66.4274 119.934C65.7179 120.02 65.1328 119.989 65.1237 120.041Z" fill="#263238"/>
<path d="M72.5701 112.288C72.7914 110.011 72.9339 107.408 73.2462 105.02C73.3644 104.12 73.6434 102.822 73.5736 101.905C73.5039 100.988 73.2856 101.272 72.9339 100.451C72.4943 99.413 70.8116 98.7207 69.8262 98.5096C68.8408 98.2985 68.7196 97.3121 67.9646 98.0666C67.3966 97.0963 66.3619 96.6284 65.3659 96.8915C64.3699 97.1546 63.6204 98.0938 63.4835 99.2503C62.9251 98.6438 62.0799 98.5397 61.421 98.9963C60.7622 99.453 60.4531 100.357 60.6668 101.202C60.1112 101.307 59.6395 101.725 59.4126 102.314C59.1858 102.902 59.2344 103.582 59.542 104.12C59.8907 104.736 60.5243 105.075 60.9124 105.664C61.3569 106.367 61.4019 107.301 61.0277 108.055" fill="#263238"/>
<path d="M62.8134 111.814C62.7619 111.814 62.6557 112.901 63.0741 114.143C63.4925 115.386 64.199 116.137 64.2263 116.088C64.2536 116.04 63.6593 115.254 63.2712 114.057C62.8831 112.859 62.8771 111.811 62.8134 111.814Z" fill="#455A64"/>
<path d="M61.7947 109.879C61.7492 109.852 61.4521 110.8 61.6461 111.98C61.8401 113.16 62.398 113.929 62.4344 113.884C62.4708 113.839 62.0281 113.057 61.8553 111.935C61.6825 110.814 61.8583 109.893 61.7947 109.879Z" fill="#455A64"/>
<path d="M71.3331 100.718C70.7856 99.6483 69.9586 98.8011 68.9682 98.2951C67.9707 97.8416 66.7428 97.9489 65.9363 98.7312" fill="#263238"/>
<path d="M71.142 106.584C71.1026 106.584 71.142 106.276 71.2148 105.802C71.3243 105.197 71.3832 104.582 71.3907 103.964C71.3915 103.357 71.2734 102.758 71.045 102.21C70.8631 101.791 70.6782 101.576 70.7085 101.542C70.7388 101.507 70.9662 101.677 71.2088 102.102C71.5081 102.662 71.6646 103.305 71.6605 103.961C71.6554 104.603 71.5675 105.241 71.3998 105.854C71.3577 106.115 71.2701 106.363 71.142 106.584Z" fill="#455A64"/>
<path d="M69.5745 107.46C69.5078 107.418 69.6958 106.896 69.8777 106.235C70.0596 105.574 70.1809 105.027 70.2506 105.037C70.3204 105.048 70.3265 105.639 70.1324 106.328C69.9384 107.017 69.6382 107.501 69.5745 107.46Z" fill="#455A64"/>
<path d="M62.3162 106.782C62.076 106.52 61.8977 106.194 61.7977 105.833C61.1716 104.092 61.5217 102.092 62.6861 100.759C62.8996 100.469 63.1754 100.248 63.4865 100.116C63.5107 100.157 63.2045 100.399 62.8255 100.908C61.8077 102.236 61.4844 104.081 61.9766 105.754C62.1403 106.394 62.3404 106.754 62.3162 106.782Z" fill="#455A64"/>
<path d="M70.5811 96.921C70.3205 96.8394 70.0692 96.7233 69.8322 96.5749C69.2651 96.2572 68.6446 96.0825 68.0131 96.0627C67.3877 96.0499 66.7866 96.3389 66.3577 96.8587C66.1978 97.0973 66.0558 97.3509 65.9332 97.6167C65.9059 97.6167 65.8938 97.2152 66.2091 96.7237C66.3968 96.4407 66.6384 96.2099 66.9156 96.0488C67.2561 95.8571 67.6304 95.7565 68.0101 95.7546C68.6857 95.7691 69.3463 95.9851 69.9262 96.3811C70.3598 96.658 70.5993 96.8864 70.5811 96.921Z" fill="#455A64"/>
<path d="M60.2242 99.3749C60.1969 99.3749 60.2515 99.0669 60.494 98.6827C61.1649 97.6214 62.3825 97.2175 63.4471 97.7032C63.8352 97.8866 64.0201 98.1012 64.0019 98.1324C63.7962 98.0721 63.5937 97.9981 63.3956 97.9109C62.4043 97.5826 61.336 97.9356 60.6517 98.8177C60.3788 99.1396 60.2636 99.3957 60.2242 99.3749Z" fill="#455A64"/>
<path d="M62.7224 109.118C62.7224 109.08 63.0954 108.966 63.7078 108.654C64.5356 108.227 65.2934 107.642 65.9484 106.924L66.388 106.436L66.1485 107.079C65.9988 107.484 65.8889 107.907 65.821 108.339C65.7816 108.557 65.7513 108.834 65.821 108.869C65.8908 108.903 66.0787 108.817 66.2546 108.678C66.8389 108.246 67.3631 107.716 67.81 107.107L68.2162 106.557L68.0313 107.249L67.5189 109.146L67.343 109.024C68.4072 107.879 68.7771 106.854 68.8287 106.892C68.7779 107.139 68.6897 107.373 68.5679 107.585C68.2775 108.178 67.9151 108.723 67.4916 109.201L67.2066 109.523L67.3158 109.08C67.4582 108.498 67.6189 107.855 67.7887 107.166L68.007 107.301C67.5499 107.942 67.0077 108.498 66.4001 108.948C66.3036 109.023 66.2022 109.089 66.0969 109.146C65.9577 109.229 65.79 109.221 65.6573 109.125C65.5434 109.011 65.4876 108.839 65.5087 108.668C65.5182 108.544 65.5333 108.42 65.5542 108.298C65.6277 107.843 65.7488 107.4 65.915 106.979L66.1151 107.138C65.4329 107.868 64.6327 108.439 63.7593 108.82C63.4304 108.984 63.0801 109.085 62.7224 109.118Z" fill="#455A64"/>
<path d="M67.1672 98.8973C67.0101 98.5786 66.7464 98.3463 66.4365 98.2535C66.1283 98.1614 65.8055 98.1519 65.4936 98.2259C64.7223 98.3867 64.0237 98.8478 63.5168 99.5307C63.4046 99.6865 63.3015 99.9252 63.4228 100.074C63.4969 100.141 63.5891 100.176 63.6835 100.174C64.8253 100.282 65.9743 100.236 67.1065 100.036" fill="#263238"/>
<path d="M71.5938 124.097C67.6594 123.621 63.6973 123.519 59.7481 123.793C59.3752 123.793 50.1612 126.056 49.6701 126.742C49.1789 127.427 54.1482 155.188 54.1482 155.188L80.0194 155.534C80.1104 151.911 79.6859 125.329 79.6859 125.329C79.407 125.222 76.0506 124.662 71.5938 124.097Z" fill="#263238"/>
<path d="M59.2631 123.883L61.0276 120.861L70.7237 121.363L72.755 124.27L66.9004 125.61L59.2631 123.883Z" fill="#263238"/>
<path d="M72.755 124.27C72.5756 124.291 72.3948 124.291 72.2153 124.27L70.754 124.215C69.52 124.17 67.813 124.146 65.9272 124.125C64.0413 124.104 62.3313 124.052 61.0973 123.962C60.491 123.917 59.9786 123.872 59.636 123.831C59.4558 123.823 59.2769 123.792 59.1024 123.741C59.2818 123.72 59.4626 123.72 59.642 123.741L61.1034 123.796C62.3374 123.841 64.0444 123.865 65.9302 123.886C67.8161 123.907 69.526 123.959 70.76 124.049C71.3664 124.094 71.8758 124.139 72.2214 124.18C72.4015 124.189 72.5804 124.219 72.755 124.27Z" fill="#455A64"/>
<path d="M68.8439 124.835L71.609 124.98C71.609 124.98 77.6546 122.578 77.976 122.748C78.2973 122.917 79.3403 124.094 79.3403 124.094L81.0746 120.56L78.9522 109.45C78.9522 109.45 80.7107 107.993 82.1206 107.993C83.5304 107.993 84.0186 108.685 84.0186 108.685C84.0186 108.685 86.7988 118.605 86.8746 121.027C86.9504 123.45 86.6897 125.696 85.9165 127.635C85.1434 129.573 80.8108 134.924 80.8108 134.924L78.9401 145.833L72.5731 133.259L68.8439 124.835Z" fill="#263238"/>
<path d="M80.6986 135.564C80.7011 135.4 80.7164 135.237 80.744 135.076C80.7865 134.764 80.832 134.311 80.8714 133.75C80.9164 133.093 80.9306 132.433 80.9138 131.774C80.8867 130.962 80.8169 130.153 80.7046 129.351C80.5843 128.556 80.4202 127.77 80.2135 126.998C80.0388 126.369 79.8364 125.751 79.6071 125.146C79.41 124.63 79.2372 124.219 79.1068 123.938C79.0331 123.797 78.9721 123.647 78.9249 123.492C79.0133 123.623 79.0924 123.762 79.1614 123.907C79.3617 124.291 79.5439 124.688 79.7072 125.094C79.9543 125.697 80.1679 126.316 80.3469 126.949C80.7888 128.502 81.0269 130.121 81.0533 131.753C81.0635 132.419 81.0382 133.085 80.9775 133.747C80.9593 134.031 80.9168 134.283 80.8896 134.505C80.8623 134.726 80.8289 134.92 80.7986 135.072C80.7812 135.24 80.7477 135.405 80.6986 135.564Z" fill="#455A64"/>
<path d="M82.5086 128.064C82.4813 128.064 82.4328 127.752 82.2873 127.264C81.9133 125.988 81.2027 124.874 80.2529 124.077C79.8921 123.772 79.6465 123.623 79.6465 123.596C79.8852 123.677 80.1098 123.804 80.3105 123.973C81.3246 124.736 82.0631 125.891 82.3904 127.226C82.4703 127.496 82.5103 127.779 82.5086 128.064Z" fill="#455A64"/>
<path d="M83.1726 126.977C83.1387 126.727 83.0849 126.482 83.0119 126.243C82.7887 125.694 82.4333 125.228 81.9871 124.9C81.4687 124.502 80.9381 124.239 80.5773 124C80.3701 123.893 80.1812 123.744 80.0194 123.561C80.2271 123.655 80.4296 123.764 80.6258 123.886C81.1269 124.133 81.6113 124.423 82.075 124.751C82.5477 125.095 82.9119 125.602 83.115 126.198C83.2066 126.444 83.2268 126.717 83.1726 126.977Z" fill="#455A64"/>
<path d="M86.3106 120.11C86.3106 120.138 86.0256 119.941 85.5466 119.74C84.2835 119.21 82.8788 119.357 81.7203 120.138C81.2807 120.429 81.0442 120.681 81.026 120.657C81.0078 120.633 81.0685 120.577 81.1746 120.463C81.3257 120.302 81.4891 120.156 81.6627 120.027C82.8366 119.155 84.3127 119.003 85.6042 119.622C85.7953 119.713 85.979 119.823 86.153 119.951C86.2682 120.041 86.3167 120.1 86.3106 120.11Z" fill="#455A64"/>
<ellipse cx="79.6525" cy="88.9848" rx="6.02742" ry="6.88062" fill="#FF003D"/>
<path d="M49.6701 126.742C49.6701 126.742 48.1754 129.888 47.8146 133.186C47.4538 136.485 47.7509 155.209 47.7509 155.209L54.0178 155.271L50.4008 127.198" fill="#263238"/>
<path d="M81.1655 86.4166C81.6021 87.0229 81.8191 87.7968 81.7719 88.5798C81.7848 89.1726 81.6725 89.7603 81.4444 90.293C81.24 90.7532 80.9174 91.1312 80.5197 91.3764C80.0955 91.6303 79.622 91.7577 79.1432 91.7467C78.8788 91.7479 78.6151 91.7131 78.3579 91.6429C78.1308 91.583 77.9137 91.4813 77.7152 91.3418L78.1578 90.345C78.4461 90.5509 78.7822 90.6523 79.122 90.6357C79.506 90.659 79.8813 90.4999 80.1589 90.1962C80.4327 89.8465 80.58 89.3913 80.5712 88.9225C80.226 89.291 79.7637 89.4823 79.2918 89.452C78.9773 89.4602 78.6655 89.3831 78.3822 89.2271C78.1208 89.0843 77.8994 88.8614 77.7424 88.5833C77.5825 88.2961 77.5002 87.9614 77.506 87.6212C77.498 87.2532 77.5878 86.8912 77.7637 86.5828C77.9358 86.2804 78.1798 86.0403 78.4671 85.8906C78.7768 85.7276 79.1145 85.646 79.4555 85.6518C80.0962 85.6082 80.7213 85.8879 81.1655 86.4166ZM80.2043 88.1852C80.3591 88.0227 80.4471 87.7937 80.4471 87.5536C80.4471 87.3136 80.3591 87.0845 80.2043 86.922C80.0195 86.7497 79.7846 86.6631 79.5464 86.6797C79.3212 86.6664 79.0997 86.749 78.9249 86.9116C78.7647 87.073 78.6767 87.3082 78.6854 87.5519C78.6775 87.7965 78.7653 88.0323 78.9249 88.1956C79.1041 88.3621 79.3308 88.4472 79.5616 88.4345C79.796 88.4492 80.0263 88.3599 80.2043 88.1852Z" fill="white"/>
<path d="M51.0769 132.148C51.0966 132.224 51.1088 132.303 51.1133 132.383C51.1315 132.553 51.1588 132.774 51.1891 133.051C51.2497 133.653 51.3376 134.491 51.4437 135.515C51.6651 137.592 51.9955 140.465 52.4352 143.625C52.8748 146.785 53.3447 149.63 53.6904 151.686C53.8662 152.696 53.9936 153.523 54.1148 154.108C54.1603 154.382 54.1967 154.6 54.224 154.769C54.239 154.847 54.2492 154.926 54.2543 155.005C54.2266 154.933 54.2062 154.857 54.1937 154.78L54.0542 154.122C53.9329 153.555 53.7723 152.738 53.5812 151.699C53.1992 149.647 52.7171 146.802 52.2775 143.642C51.8379 140.482 51.5256 137.606 51.3346 135.519C51.2376 134.481 51.1679 133.633 51.1254 133.048C51.1072 132.771 51.0951 132.546 51.083 132.376C51.076 132.3 51.074 132.224 51.0769 132.148Z" fill="#455A64"/>
<path d="M14.2666 100.323C14.1226 100.079 13.8362 100.006 13.6147 100.157C13.2449 100.431 12.1352 102.961 12.1352 102.961C11.9142 103.259 11.7183 103.579 11.55 103.919C11.359 104.352 12.0078 107.429 12.0078 107.429L15.4066 105.532C15.4066 105.532 15.922 105.716 16.1221 105.376C16.3247 104.938 16.4951 104.48 16.6315 104.009L15.9675 102.729C15.9675 102.729 16.5739 102.677 16.7619 102.424C16.8799 102.219 16.9373 101.977 16.9256 101.732L14.2666 100.323Z" fill="#FFBF9D"/>
<path d="M12.593 98.4889C13.0053 98.88 13.9179 99.5999 13.7299 101.119C13.5419 102.639 12.7749 104.875 13.0872 105.736C13.3994 106.598 14.8487 107.148 15.5945 106.082C16.3404 105.016 16.8073 101.846 17.0408 101.31C17.2847 100.808 17.7034 100.449 18.1929 100.32C18.6386 100.178 15.831 96.9695 15.831 96.9695L12.593 98.4889Z" fill="#FF003D"/>
<path d="M12.6779 113.413C12.6779 113.413 14.9942 109.184 15.167 108.568C15.3399 107.951 15.6491 106.865 15.4702 105.823C15.3546 105.214 15.3169 104.589 15.3581 103.968C15.3581 103.847 15.9432 102.078 15.8765 101.372C15.8098 100.666 15.4975 100.607 15.2307 100.607C14.9639 100.607 14.6547 100.998 14.5304 101.625C14.3058 102.565 14.0325 103.49 13.7117 104.393C13.4086 105.273 12.0078 107.401 12.0078 107.401C12.0078 107.401 11.8289 108.439 11.7046 108.855C11.5803 109.27 10.0037 111.593 10.0037 111.593L11.6864 113.828L12.6779 113.413Z" fill="#FFBF9D"/>
<ellipse cx="6.25271" cy="6.67655" rx="6.25271" ry="6.67655" transform="matrix(0.834148 -0.55154 0.452478 0.891775 10.2499 97.9453)" fill="#FF003D"/>
<path d="M17.5259 131.49L13.8057 130.043L8.31799 125.426L14.9579 113.368L9.88548 108.993C9.88548 108.993 3.16376 119.889 1.77212 123.128C0.380473 126.368 -0.104631 128.026 1.52956 130.237C3.16376 132.449 15.9766 143.209 15.9766 143.209L17.5259 131.49Z" fill="#FF003D"/>
<path d="M37.6456 155.209L38.8977 145.317C38.8977 145.345 40.1378 134.359 40.1257 134.332C38.5681 133.534 36.9669 132.852 35.3322 132.29L32.5004 130.459C31.8952 129.578 31.5464 128.504 31.5029 127.385C31.4525 126.679 31.4343 125.969 31.4483 125.26L23.2622 125.793C23.2622 125.793 22.1283 129.555 20.1909 130.718C18.2535 131.881 15.258 131.829 15.258 131.829C15.258 131.829 14.6516 139.859 14.6516 141.496L17.1408 155.209H37.6456Z" fill="#FF003D"/>
<g opacity="0.3">
<path d="M34.5227 124.62L19.9696 150.187C23.5169 152.222 27.992 153.233 31.3453 150.806C32.2761 152.115 34.2681 151.641 35.1716 150.308C36.0751 148.976 36.1782 147.165 36.1903 145.483C36.26 138.492 35.3899 131.542 34.5227 124.62Z" fill="black"/>
</g>
<path d="M28.6772 106.515C27.1158 106.224 25.5058 106.996 24.3416 108.218C23.1773 109.44 22.3981 111.07 21.7736 112.717C20.5608 115.953 19.8513 119.404 19.151 122.831C18.1201 127.884 17.0832 132.965 16.8073 138.142C16.5314 143.32 17.8897 146.376 19.8392 151.059L26.758 149.965V148.47L27.6918 149.965L30.3781 149.491C30.3781 149.491 31.1846 141.472 31.1846 141.496C31.1846 141.52 32.4641 149.131 32.4641 149.131L34.7016 148.896C36.927 138.821 34.3984 132.193 35.6748 121.9C35.978 119.453 36.454 117.019 36.4449 114.548C36.4359 112.077 35.878 109.495 34.3863 107.706C32.8946 105.916 30.3175 105.183 28.4832 106.498" fill="#263238"/>
<path d="M30.3721 149.502C30.3596 149.465 30.3515 149.427 30.3478 149.387C30.3478 149.301 30.3114 149.187 30.2872 149.041C30.2387 148.73 30.172 148.287 30.084 147.726C29.9143 146.581 29.6778 144.923 29.4777 142.881C29.2166 140.47 29.1001 138.041 29.129 135.612C29.1546 134.175 29.2477 132.74 29.4079 131.314C29.5967 129.784 29.8691 128.27 30.2235 126.78C30.9906 123.727 32.0427 120.951 32.5763 118.279C32.8407 117.021 32.978 115.732 32.9856 114.438C32.9939 113.312 32.8444 112.193 32.5429 111.122C32.2894 110.239 31.9171 109.406 31.4393 108.654C31.0776 108.088 30.6479 107.582 30.1629 107.152C29.8551 106.885 29.525 106.653 29.1775 106.46L28.9016 106.318L28.8076 106.262C28.8422 106.27 28.8758 106.283 28.9077 106.301L29.1896 106.429C29.5474 106.616 29.886 106.849 30.1993 107.121C30.698 107.545 31.1401 108.05 31.5121 108.619C32.0025 109.375 32.3861 110.213 32.649 111.104C32.9604 112.188 33.118 113.321 33.116 114.462C33.1147 115.767 32.9814 117.068 32.7188 118.338C32.2034 121.034 31.1361 123.821 30.3751 126.852C30.0218 128.331 29.7504 129.834 29.5626 131.352C29.3959 132.771 29.2947 134.199 29.2594 135.63C29.2209 138.057 29.3221 140.485 29.5626 142.898C29.7627 144.975 29.981 146.619 30.1326 147.768C30.2084 148.332 30.266 148.775 30.3084 149.086C30.3266 149.232 30.3387 149.346 30.3509 149.432C30.3594 149.455 30.3665 149.478 30.3721 149.502Z" fill="#455A64"/>
<path d="M20.6427 144.255C20.6383 144.224 20.6383 144.192 20.6427 144.161C20.6427 144.085 20.6245 143.992 20.6123 143.877L20.5123 142.791C20.4911 142.552 20.4698 142.289 20.4456 142.005C20.4213 141.721 20.4122 141.403 20.3941 141.064C20.3637 140.392 20.3092 139.624 20.3061 138.776C20.3061 138.35 20.3061 137.907 20.2879 137.443C20.2697 136.98 20.2879 136.495 20.3061 135.997C20.3061 134.996 20.3759 133.92 20.4335 132.812C20.7479 127.945 21.562 123.137 22.859 118.487C23.1622 117.421 23.4654 116.41 23.7686 115.472C23.9262 115.005 24.0717 114.552 24.2203 114.123L24.6751 112.894C24.951 112.105 25.2512 111.416 25.4998 110.817C25.6271 110.513 25.7393 110.225 25.8515 109.969L26.1547 109.277C26.3457 108.865 26.4942 108.543 26.6004 108.308L26.7216 108.059C26.7489 108.003 26.7641 107.976 26.7671 107.979C26.7574 108.01 26.7462 108.04 26.7338 108.069L26.6307 108.325L26.2092 109.308C26.1183 109.523 26.0152 109.758 25.906 110.018C25.7969 110.277 25.6878 110.565 25.5665 110.873C25.327 111.485 25.0359 112.177 24.7661 112.967C24.6236 113.361 24.4629 113.77 24.3234 114.199C24.1839 114.628 24.0202 115.081 23.8807 115.549C23.5775 116.48 23.2744 117.497 22.9712 118.56C21.6958 123.202 20.8871 127.996 20.5608 132.847C20.5002 133.965 20.4274 135.027 20.4183 136.024C20.4183 136.523 20.388 137.004 20.391 137.468C20.3941 137.931 20.391 138.374 20.391 138.797C20.391 139.645 20.4335 140.409 20.4547 141.084C20.4547 141.43 20.4789 141.732 20.4911 142.022C20.5032 142.313 20.5305 142.569 20.5457 142.808C20.576 143.272 20.6002 143.635 20.6154 143.898C20.6154 144.016 20.6154 144.109 20.6154 144.182C20.6269 144.205 20.636 144.229 20.6427 144.255Z" fill="#455A64"/>
<path d="M24.478 150.336C24.466 150.305 24.4559 150.274 24.4477 150.242C24.4265 150.17 24.3992 150.076 24.3689 149.959C24.2961 149.695 24.1991 149.329 24.0657 148.861C24.005 148.623 23.9353 148.356 23.8595 148.069C23.7837 147.781 23.7261 147.453 23.6503 147.11C23.5139 146.418 23.3198 145.646 23.1925 144.767C23.1197 144.327 23.047 143.87 22.9681 143.382C22.8893 142.894 22.8438 142.4 22.7771 141.88C22.7104 141.361 22.6346 140.842 22.6043 140.271C22.574 139.7 22.5194 139.143 22.4739 138.558C22.3375 136.006 22.3547 133.447 22.5255 130.898C22.7191 128.352 23.0543 125.823 23.529 123.326C23.6442 122.754 23.7595 122.194 23.8686 121.65C23.9778 121.107 24.1203 120.588 24.2355 120.083C24.4659 119.068 24.7327 118.141 24.9692 117.293C25.2057 116.445 25.4513 115.69 25.6544 115.022C25.8575 114.354 26.0576 113.79 26.2214 113.327L26.6003 112.267L26.7034 111.994C26.7124 111.961 26.7257 111.929 26.7429 111.901C26.7363 111.935 26.7272 111.968 26.7156 112.001C26.6943 112.074 26.664 112.164 26.6307 112.281C26.5458 112.537 26.4275 112.897 26.279 113.354C26.1304 113.811 25.9333 114.393 25.7363 115.057C25.5392 115.722 25.2906 116.476 25.0753 117.331C24.86 118.186 24.5872 119.11 24.3628 120.121C24.2476 120.626 24.1112 121.159 24.005 121.688C23.8989 122.218 23.7837 122.789 23.6715 123.36C23.2057 125.852 22.8746 128.374 22.6801 130.912C22.5111 133.452 22.4908 136.001 22.6195 138.544C22.6619 139.129 22.7013 139.7 22.7407 140.257C22.7802 140.814 22.856 141.344 22.9075 141.863C22.959 142.382 23.0076 142.884 23.0864 143.358C23.1652 143.832 23.2319 144.293 23.3016 144.743C23.4199 145.622 23.6048 146.397 23.7352 147.086C23.808 147.432 23.8625 147.754 23.9323 148.045C24.002 148.335 24.0687 148.602 24.1263 148.844L24.3901 149.948C24.4144 150.066 24.4356 150.163 24.4538 150.235C24.4653 150.268 24.4734 150.301 24.478 150.336Z" fill="#455A64"/>
<path d="M34.1922 145.47C34.1922 145.47 34.174 145.438 34.1437 145.373C34.1134 145.307 34.0709 145.196 34.0194 145.075L33.8193 144.587C33.7465 144.39 33.6647 144.161 33.5737 143.895C33.0641 142.446 32.6763 140.945 32.4155 139.413C31.7851 135.785 31.8565 132.044 32.6247 128.451C32.9279 127.067 33.2917 125.658 33.6768 124.222C34.0618 122.786 34.4348 121.377 34.7046 119.996C34.9772 118.673 35.1367 117.322 35.1806 115.964C35.2228 114.736 35.1126 113.508 34.8532 112.316C34.624 111.278 34.2427 110.291 33.7253 109.398C32.9867 108.089 31.9344 107.048 30.6934 106.401C30.3536 106.237 30.0014 106.108 29.6413 106.017L29.3594 105.948C29.3554 105.978 29.3315 106 29.3046 105.998C29.2777 105.995 29.2568 105.97 29.2568 105.939C29.2568 105.908 29.2777 105.882 29.3046 105.88C29.3315 105.878 29.3554 105.9 29.3594 105.93L29.6625 105.979C30.0281 106.055 30.3865 106.171 30.7328 106.325C31.9964 106.966 33.0682 108.015 33.8163 109.343C34.3469 110.244 34.7405 111.241 34.9805 112.292C35.251 113.496 35.3694 114.738 35.3322 115.981C35.2924 117.351 35.1349 118.713 34.8623 120.048C34.5924 121.432 34.2225 122.848 33.8344 124.288C33.4464 125.728 33.0674 127.129 32.7793 128.507C32.4961 129.827 32.3055 131.17 32.2093 132.525C31.9418 136.38 32.4275 140.255 33.6313 143.871L33.8617 144.563L34.0467 145.054C34.0952 145.182 34.1316 145.283 34.1589 145.362C34.1737 145.396 34.1849 145.432 34.1922 145.47Z" fill="#455A64"/>
<path d="M8.38469 125.489C7.75505 125.583 7.14164 125.786 6.56554 126.091C6.00888 126.451 5.50545 126.909 5.07385 127.448C5.14297 127.247 5.24716 127.064 5.38007 126.911C6.00629 126.109 6.87004 125.598 7.80559 125.478C7.99728 125.437 8.19422 125.441 8.38469 125.489Z" fill="#263238"/>
<path d="M16.3374 132.878C16.3586 132.895 16.1494 133.269 15.8613 133.899C15.487 134.72 15.1824 135.58 14.9518 136.467C14.7282 137.357 14.579 138.269 14.5061 139.191C14.4515 139.883 14.4515 140.344 14.4273 140.344C14.4024 140.242 14.3911 140.137 14.3939 140.032C14.3939 139.831 14.3939 139.541 14.3939 139.184C14.4339 138.246 14.5703 137.317 14.8002 136.415C15.0307 135.514 15.3544 134.647 15.7643 133.833C15.8869 133.587 16.0205 133.348 16.1645 133.117C16.2676 132.958 16.3283 132.871 16.3374 132.878Z" fill="#263238"/>
<path d="M40.1257 134.332C40.1257 134.332 42.3814 136.159 42.8544 140.063C43.3273 143.967 44.3036 155.209 44.3036 155.209H38.8462L37.8032 150.53L40.1257 134.332Z" fill="#FF003D"/>
<path d="M39.8467 138.869C39.8514 138.924 39.8514 138.98 39.8467 139.035C39.8467 139.163 39.8194 139.319 39.8043 139.51C39.7648 139.921 39.7012 140.513 39.6133 141.24C39.4374 142.704 39.1615 144.725 38.8401 146.951C38.5187 149.176 38.2338 151.163 38.0185 152.648C37.9214 153.357 37.8396 153.942 37.779 154.378C37.7517 154.565 37.7274 154.724 37.7092 154.846C37.7044 154.902 37.6921 154.956 37.6729 155.008C37.6675 154.953 37.6675 154.897 37.6728 154.842C37.6728 154.714 37.6971 154.555 37.7123 154.368C37.7517 153.956 37.8153 153.364 37.9033 152.637C38.0791 151.17 38.355 149.152 38.6764 146.927C38.9978 144.701 39.2828 142.714 39.4981 141.23C39.5951 140.52 39.6769 139.935 39.7376 139.499C39.7649 139.312 39.7891 139.153 39.8073 139.032C39.8125 138.976 39.8258 138.921 39.8467 138.869Z" fill="#263238"/>
<path d="M18.3899 93.3942C18.6306 93.6991 18.7588 94.0984 18.7477 94.5087C18.7501 94.8425 18.6691 95.1702 18.5143 95.4535C18.3386 95.759 18.089 95.9995 17.7957 96.1457C17.4241 96.3302 17.0214 96.4188 16.6163 96.4053C16.2548 96.4052 15.8949 96.3505 15.546 96.2426C15.2252 96.1442 14.9224 95.9813 14.6516 95.7616L15.1155 94.7232C15.3203 94.8976 15.5501 95.03 15.7946 95.1143C16.0506 95.2069 16.3175 95.2536 16.586 95.2528C16.8321 95.2722 17.0778 95.2084 17.2924 95.0693C17.4594 94.9495 17.5576 94.7371 17.5501 94.5121C17.5501 94.031 17.2287 93.7888 16.586 93.7888H16.0402V92.8889L17.1014 91.5218H14.9093V90.428H18.5143V91.3106L17.35 92.8231C17.7433 92.8737 18.1099 93.075 18.3899 93.3942Z" fill="white"/>
</svg>
