<svg width="58" height="102" viewBox="0 0 58 102" fill="none" xmlns="http://www.w3.org/2000/svg">
<path fill-rule="evenodd" clip-rule="evenodd" d="M57.5 0H56.995V20.175H57.5V0ZM55.054 0.052L54.55 0.073L55.407 20.23L55.911 20.209L55.054 0.052ZM52.612 0.208L52.11 0.251L53.825 20.353L54.327 20.31L52.612 0.208ZM50.171 0.469L49.671 0.533L52.245 20.544L52.745 20.479L50.171 0.469ZM47.742 0.835L47.245 0.92L50.676 20.802L51.173 20.716L47.742 0.835ZM45.346 1.301L44.853 1.408L49.129 21.125L49.622 21.018L45.346 1.301ZM42.957 1.873L42.469 2.001L47.588 21.516L48.076 21.388L42.957 1.873ZM40.599 2.546L40.117 2.694L46.067 21.972L46.549 21.824L40.599 2.546ZM38.268 3.321L37.792 3.49L44.564 22.495L45.039 22.326L38.268 3.321ZM35.969 4.195L35.502 4.385L43.082 23.082L43.55 22.892L35.969 4.195ZM33.743 5.153L33.284 5.362L41.647 23.723L42.106 23.514L33.743 5.153ZM31.532 6.218L31.083 6.446L40.223 24.433L40.672 24.204L31.532 6.218ZM29.372 7.374L28.933 7.622L38.831 25.202L39.27 24.955L29.372 7.374ZM27.262 8.622L26.833 8.888L37.471 26.031L37.9 25.765L27.262 8.622ZM25.207 9.959L24.79 10.243L36.148 26.917L36.565 26.633L25.207 9.959ZM23.208 11.384L22.804 11.685L34.862 27.861L35.266 27.559L23.208 11.384ZM21.274 12.89L20.883 13.209L33.618 28.857L34.009 28.538L21.274 12.89ZM19.401 14.482L19.024 14.817L32.415 29.908L32.792 29.573L19.401 14.482ZM17.599 16.152L17.236 16.502L31.258 31.008L31.621 30.658L17.599 16.152ZM15.881 17.884L15.533 18.25L30.157 32.149L30.505 31.783L15.881 17.884ZM14.259 19.663L13.928 20.043L29.12 33.319L29.451 32.939L14.259 19.663ZM12.689 21.539L12.373 21.933L28.116 34.551L28.431 34.158L12.689 21.539ZM11.198 23.483L10.899 23.89L27.164 35.827L27.463 35.42L11.198 23.483ZM9.79 25.489L9.51 25.908L26.268 37.142L26.549 36.723L9.79 25.489ZM8.469 27.553L8.207 27.984L25.428 38.495L25.691 38.064L8.469 27.553ZM7.236 29.674L6.992 30.115L24.645 39.883L24.889 39.442L7.236 29.674ZM6.097 31.84L5.872 32.291L23.923 41.302L24.148 40.851L6.097 31.84ZM5.049 34.056L4.843 34.516L23.26 42.754L23.466 42.294L5.049 34.056ZM4.097 36.311L3.91 36.78L22.659 44.233L22.845 43.764L4.097 36.311ZM3.241 38.604L3.074 39.08L22.12 45.737L22.286 45.261L3.241 38.604ZM2.484 40.925L2.337 41.408L21.646 47.258L21.792 46.776L2.484 40.925ZM1.824 43.281L1.698 43.769L21.237 48.799L21.362 48.31L1.824 43.281ZM1.264 45.662L1.159 46.155L20.893 50.354L20.998 49.861L1.264 45.662ZM0.805 48.07L0.721 48.568L20.615 51.925L20.699 51.428L0.805 48.07ZM0.45 50.481L0.388 50.982L20.406 53.497L20.468 52.996L0.45 50.481ZM0.197 52.917L0.155 53.42L20.262 55.084L20.303 54.581L0.197 52.917ZM0.046 55.366L0.026 55.87L20.185 56.679L20.205 56.175L0.046 55.366ZM0 57.816L0.001 58.32L20.177 58.274L20.175 57.77L0 57.816ZM0.058 60.268L0.08 60.772L20.235 59.87L20.213 59.367L0.058 60.268ZM0.216 62.684L0.26 63.187L20.36 61.443L20.316 60.941L0.216 62.684ZM0.479 65.114L0.544 65.614L20.552 63.024L20.487 62.524L0.479 65.114ZM0.844 67.535L0.93 68.032L20.811 64.599L20.726 64.102L0.844 67.535ZM1.312 69.94L1.419 70.433L21.137 66.163L21.031 65.67L1.312 69.94ZM1.88 72.319L2.008 72.807L21.528 67.709L21.401 67.221L1.88 72.319ZM2.55 74.679L2.698 75.161L21.986 69.242L21.838 68.759L2.55 74.679ZM3.319 77.006L3.487 77.481L22.507 70.751L22.338 70.276L3.319 77.006ZM4.186 79.3L4.374 79.768L23.091 72.238L22.903 71.77L4.186 79.3ZM5.15 81.559L5.358 82.018L23.739 73.7L23.531 73.241L5.15 81.559ZM6.195 83.744L6.422 84.194L24.438 75.113L24.211 74.663L6.195 83.744ZM7.328 85.88L7.574 86.32L25.194 76.493L24.948 76.052L7.328 85.88ZM8.567 87.994L8.831 88.424L26.017 77.856L25.753 77.426L8.567 87.994ZM9.894 90.052L10.176 90.47L26.897 79.182L26.615 78.764L9.894 90.052ZM11.307 92.052L11.606 92.458L27.833 80.468L27.533 80.063L11.307 92.052ZM12.807 93.994L13.123 94.387L28.824 81.716L28.507 81.324L12.807 93.994ZM14.387 95.869L14.72 96.248L29.866 82.92L29.533 82.541L14.387 95.869ZM16.044 97.674L16.393 98.038L30.959 84.078L30.61 83.714L16.044 97.674ZM17.777 99.406L18.141 99.755L32.101 85.189L31.736 84.84L17.777 99.406ZM19.582 101.064L19.961 101.398L33.29 86.253L32.911 85.919L19.582 101.064Z" fill="#FF003D"/>
</svg>
