<svg width="47" height="57" viewBox="0 0 47 57" fill="none" xmlns="http://www.w3.org/2000/svg">
<g opacity="0.36">
<path d="M1.90332 6.90352V50.0965C1.90332 53.0783 4.32059 55.4956 7.30244 55.4956H39.6972C42.679 55.4956 45.0963 53.0783 45.0963 50.0965V18.625C45.0963 17.1726 44.5106 15.7809 43.4716 14.7651L31.4851 3.04314C30.4764 2.05688 29.1218 1.50457 27.7111 1.50439H7.30244C4.32059 1.50439 1.90332 3.92166 1.90332 6.90352Z" stroke="#FF003D" stroke-width="3" stroke-linecap="round" stroke-linejoin="round"/>
<path d="M28.8989 1.50439V12.3026C28.8989 15.2845 31.3162 17.7018 34.298 17.7018H45.0963" stroke="#FF003D" stroke-width="3" stroke-linejoin="round"/>
<path d="M14 30.2275H10.6689V28.4785H14C14.5801 28.4785 15.0488 28.3848 15.4062 28.1973C15.7637 28.0098 16.0244 27.752 16.1885 27.4238C16.3584 27.0898 16.4434 26.709 16.4434 26.2812C16.4434 25.877 16.3584 25.499 16.1885 25.1475C16.0244 24.79 15.7637 24.5029 15.4062 24.2861C15.0488 24.0693 14.5801 23.9609 14 23.9609H11.3457V35H9.13965V22.2031H14C14.9902 22.2031 15.8311 22.3789 16.5225 22.7305C17.2197 23.0762 17.75 23.5566 18.1133 24.1719C18.4766 24.7812 18.6582 25.4785 18.6582 26.2637C18.6582 27.0898 18.4766 27.7988 18.1133 28.3906C17.75 28.9824 17.2197 29.4365 16.5225 29.7529C15.8311 30.0693 14.9902 30.2275 14 30.2275ZM24.3535 35H21.6201L21.6377 33.251H24.3535C25.1445 33.251 25.8066 33.0781 26.3398 32.7324C26.8789 32.3867 27.2832 31.8916 27.5527 31.2471C27.8281 30.6025 27.9658 29.835 27.9658 28.9443V28.25C27.9658 27.5586 27.8867 26.9463 27.7285 26.4131C27.5762 25.8799 27.3477 25.4316 27.043 25.0684C26.7441 24.7051 26.375 24.4297 25.9355 24.2422C25.502 24.0547 25.001 23.9609 24.4326 23.9609H21.5674V22.2031H24.4326C25.2822 22.2031 26.0586 22.3467 26.7617 22.6338C27.4648 22.915 28.0713 23.3223 28.5811 23.8555C29.0967 24.3887 29.4922 25.0273 29.7676 25.7715C30.043 26.5156 30.1807 27.3477 30.1807 28.2676V28.9443C30.1807 29.8643 30.043 30.6963 29.7676 31.4404C29.4922 32.1846 29.0967 32.8232 28.5811 33.3564C28.0654 33.8838 27.4502 34.291 26.7354 34.5781C26.0264 34.8594 25.2324 35 24.3535 35ZM22.8418 22.2031V35H20.6357V22.2031H22.8418ZM34.6016 22.2031V35H32.3955V22.2031H34.6016ZM39.8223 27.8018V29.5508H34.0391V27.8018H39.8223ZM40.5518 22.2031V23.9609H34.0391V22.2031H40.5518Z" fill="#FF003D"/>
</g>
</svg>
