<svg width="137" height="144" viewBox="0 0 137 144" fill="none" xmlns="http://www.w3.org/2000/svg">
<path d="M5.18351 10.5061C7.08965 8.63488 8.96006 6.73575 10.7948 4.80873C8.3604 3.97182 5.93732 3.08234 3.52551 2.14029C4.03494 4.92782 4.58761 7.71643 5.18351 10.5061Z" fill="#FF003D"/>
<path d="M13.6681 13.3902C15.499 11.4267 17.2924 9.44281 19.0481 7.43853C16.595 6.72394 14.1512 5.9557 11.7168 5.13382C12.3221 7.88273 12.9725 10.6349 13.6681 13.3902Z" fill="#263238"/>
<path d="M21.9214 15.7754C23.6791 13.726 25.3953 11.6531 27.0702 9.55654C24.6021 8.95998 22.1385 8.3087 19.6797 7.60269C20.3847 10.3301 21.1319 13.0544 21.9214 15.7754Z" fill="#FF003D"/>
<path d="M30.5413 17.8322C32.2162 15.7013 33.8535 13.5468 35.4533 11.3687C32.9644 10.8945 30.4821 10.3645 28.0064 9.77863C28.8109 12.4653 29.6559 15.1498 30.5413 17.8322Z" fill="#263238"/>
<path d="M38.9131 19.4159C40.509 17.2078 42.0665 14.9792 43.5854 12.7303C41.0777 12.3698 38.5804 11.9567 36.0934 11.4911C36.9882 14.1413 37.9281 16.7829 38.9131 19.4159Z" fill="#FF003D"/>
<path d="M47.6176 20.6359C49.1214 18.3526 50.5924 16.0501 52.0304 13.7282C49.5209 13.49 47.016 13.1982 44.5159 12.8527C45.5084 15.4664 46.5423 18.0608 47.6176 20.6359Z" fill="#263238"/>
<path d="M56.0457 21.4309C57.4725 19.0704 58.8598 16.7024 60.2076 14.3269C57.6962 14.2046 55.1848 14.0286 52.6733 13.799C53.7561 16.3548 54.8802 18.8988 56.0457 21.4309Z" fill="#FF003D"/>
<path d="M64.801 21.8333C66.1413 19.4127 67.4393 16.975 68.695 14.52C66.1798 14.52 63.6656 14.4653 61.1523 14.3559C62.329 16.8666 63.5453 19.3591 64.801 21.8333Z" fill="#263238"/>
<path d="M73.2517 21.8204C74.5036 19.3419 75.7142 16.8505 76.8835 14.3462C74.3702 14.4621 71.8559 14.5232 69.3407 14.5297C70.604 16.976 71.9076 19.4062 73.2517 21.8204Z" fill="#FF003D"/>
<path d="M82.0069 21.3923C83.1667 18.8558 84.2852 16.3076 85.3624 13.7475C82.8528 13.9857 80.3405 14.1692 77.8253 14.2979C79.1806 16.6799 80.5745 19.0447 82.0069 21.3923Z" fill="#263238"/>
<path d="M90.4351 20.5811C91.5028 17.9932 92.5302 15.3955 93.5171 12.7883C91.015 13.1423 88.5102 13.4417 86.0025 13.6863C87.4424 16.0039 88.92 18.3022 90.4351 20.5811Z" fill="#FF003D"/>
<path d="M99.1424 19.3258C100.118 16.6863 101.05 14.0404 101.94 11.3881C99.4507 11.8645 96.9581 12.2862 94.4617 12.6531C95.9843 14.8977 97.5446 17.122 99.1424 19.3258Z" fill="#263238"/>
<path d="M107.506 17.7164C108.385 15.0318 109.224 12.3441 110.021 9.65311C107.549 10.2454 105.068 10.7819 102.577 11.2625C104.182 13.4342 105.825 15.5855 107.506 17.7164Z" fill="#FF003D"/>
<path d="M116.12 15.6305C116.908 12.9074 117.649 10.1767 118.345 7.43854C115.89 8.15313 113.425 8.81192 110.951 9.41492C112.638 11.5158 114.361 13.5876 116.12 15.6305Z" fill="#263238"/>
<path d="M124.37 13.2325C125.059 10.4729 125.705 7.71322 126.31 4.95358C123.867 5.78191 121.423 6.55658 118.979 7.2776C120.739 9.28403 122.536 11.269 124.37 13.2325Z" fill="#FF003D"/>
<path d="M132.849 10.3097C133.436 7.52007 133.982 4.73038 134.488 1.9407C132.08 2.8892 129.658 3.78511 127.224 4.62845C129.068 6.55119 130.943 8.44496 132.849 10.3097Z" fill="#263238"/>
<path d="M137 1.03943C92.8857 19.168 44.6143 19.168 0.5 1.03945L0.564817 0.843079C44.639 18.9557 92.8667 18.9557 136.941 0.843083C136.958 0.907456 136.977 0.971833 137 1.03943Z" fill="#263238"/>
<path d="M42.9707 122.89H53.8013V138.018C53.8013 140.507 52.0338 142.525 49.8536 142.525H46.9183C44.7381 142.525 42.9707 140.507 42.9707 138.018V122.89Z" fill="#263238" stroke="#263238" stroke-linecap="round" stroke-linejoin="round"/>
<path d="M114.538 122.89H125.369V138.018C125.369 140.507 123.601 142.525 121.421 142.525H118.486C116.306 142.525 114.538 140.507 114.538 138.018V122.89Z" fill="#263238" stroke="#263238" stroke-linecap="round" stroke-linejoin="round"/>
<path d="M129.474 82.1162C128.654 81.0218 125.363 80.5518 123.716 80.3941C122.07 80.2364 121.661 81.9585 121.661 83.5261C121.661 85.0937 121.943 87.437 121.661 88.0647L121.379 88.6891L118.232 79.2997L111.14 63.1024C110.76 62.2173 110.128 61.5058 109.347 61.0841C108.97 60.8853 108.576 60.7311 108.171 60.6239L83.0587 59.906C82.3556 59.8867 81.6526 59.8867 80.9495 59.906L58.6511 60.6238C58.3318 60.8011 58.0729 61.0943 57.9152 61.4575C57.9152 61.4575 49.4137 81.0218 48.455 83.8383C47.4963 86.6548 46.9465 88.9885 46.9465 88.9885C46.5898 88.6359 46.3893 88.1203 46.3994 87.5818C46.3995 86.6419 46.3995 81.466 46.1175 80.6934C45.8355 79.9209 41.042 80.6934 38.9892 82.1033C36.9365 83.5132 38.1659 86.172 39.9479 87.2696C41.1929 87.9673 42.5415 88.392 43.9237 88.5217L45.7086 91.4928C45.7086 91.4928 43.3767 94.3125 43.1032 95.2492C42.8297 96.1859 41.73 106.193 41.73 109.338C41.73 112.483 42.1417 123.108 42.8269 124.676C43.5121 126.244 45.2941 128.146 46.2444 128.445C47.1946 128.745 85.5936 130.01 85.5936 130.01L120.84 129.07C120.84 129.07 123.995 130.164 125.228 122.954C126.46 115.744 126.186 109.65 126.186 105.572C126.186 101.494 125.904 95.8672 125.366 94.6279C124.827 93.3886 123.172 91.8114 122.899 91.3415C122.625 90.8715 123.584 87.8973 123.584 87.8973C123.584 87.8973 128.518 87.4273 129.477 86.6451C130.436 85.8629 130.298 83.2106 129.474 82.1162Z" fill="#FF003D" stroke="#263238" stroke-linecap="round" stroke-linejoin="round"/>
<path d="M58.1831 81.2954C58.1831 81.2954 54.1396 85.5217 68.8022 87.2664C83.4647 89.011 99.2552 92.056 102.639 93.7846L106.006 95.5163L113.072 91.673C113.072 91.673 109.688 87.2664 100.603 85.5217C91.5179 83.7771 74.3429 82.6409 68.4582 80.3361C62.5734 78.0314 58.1831 79.3737 58.1831 81.2954Z" fill="white"/>
<line x1="0.5" y1="-0.5" x2="4.99379" y2="-0.5" transform="matrix(0.262274 0.964993 -0.942623 0.333858 66.3236 112.206)" stroke="#263238" stroke-linecap="round" stroke-linejoin="round"/>
<line x1="0.5" y1="-0.5" x2="4.99379" y2="-0.5" transform="matrix(-0.262274 0.964993 -0.942623 -0.333858 102.52 112.206)" stroke="#263238" stroke-linecap="round" stroke-linejoin="round"/>
<path d="M49.0444 84.9874C49.0444 84.9874 49.7549 89.378 53.4995 91.4573C57.2441 93.5367 66.0501 99.4305 66.0501 99.4305" stroke="#263238" stroke-linecap="round" stroke-linejoin="round"/>
<path d="M119.396 84.9874C119.396 84.9874 118.689 89.378 114.944 91.4573C111.2 93.5367 102.391 99.4305 102.391 99.4305" stroke="#263238" stroke-linecap="round" stroke-linejoin="round"/>
<line x1="0.5" y1="-0.5" x2="10.1046" y2="-0.5" transform="matrix(0.620337 0.784335 -0.696349 0.717703 51.5765 108.447)" stroke="#263238" stroke-linecap="round" stroke-linejoin="round"/>
<line x1="0.5" y1="-0.5" x2="10.1796" y2="-0.5" transform="matrix(-0.56872 0.822531 -0.742914 -0.669386 116.258 108.675)" stroke="#263238" stroke-linecap="round" stroke-linejoin="round"/>
<line x1="104.411" y1="101.242" x2="106.354" y2="101.242" stroke="#263238" stroke-linecap="round" stroke-linejoin="round"/>
<line x1="64.4363" y1="102.242" x2="61.8722" y2="102.242" stroke="#263238" stroke-linecap="round" stroke-linejoin="round"/>
<path d="M42.0627 118.325C42.2488 121.293 42.5082 123.965 42.824 124.689C43.512 126.253 45.2941 128.13 46.2528 128.445C47.2115 128.761 85.6021 130.01 85.6021 130.01L120.849 129.07C120.849 129.07 124.004 130.164 125.236 122.954C125.518 121.344 125.71 119.799 125.854 118.312L42.0627 118.325Z" fill="#757575" stroke="#263238" stroke-linecap="round" stroke-linejoin="round"/>
<path d="M70.2854 122.996H66.9525L63.0302 129.211C73.7452 129.611 85.588 129.997 85.588 129.997L105.633 129.462L101.57 122.996H98.2373L84.2599 123.276L70.2854 122.996Z" fill="#ABABAB" stroke="#263238" stroke-linecap="round" stroke-linejoin="round"/>
<path d="M57.6332 63.4918C57.6332 63.4918 51.1873 82.8984 51.1873 83.5261C51.1873 84.1537 90.1277 83.3683 90.1277 83.3683H116.738C116.738 83.3683 117.561 82.7439 117.149 80.5518C116.737 78.3598 110.159 63.9618 110.159 63.9618C110.159 63.9618 85.8897 62.8642 78.6233 62.8642C71.3568 62.8642 57.6332 63.4918 57.6332 63.4918Z" fill="#263238" stroke="#263238" stroke-linecap="round" stroke-linejoin="round"/>
<path opacity="0.2" d="M55.51 71.1495L66.1037 83.5003H58.7781L53.4798 77.5808L55.51 71.1495Z" fill="white"/>
<path opacity="0.2" d="M77.0386 64.0004L116.258 79.9499L114.575 74.9542L92.1889 64.0004H77.0386Z" fill="white"/>
<path d="M108.385 76.8405H84.2148L85.1566 67.715H107.441L108.385 76.8405Z" fill="white" stroke="#263238" stroke-linecap="round" stroke-linejoin="round"/>
<path d="M88.7151 71.6324L88.6728 72.2439H87.5054L87.2967 74.9188H86.7328L87.2178 68.9189H89.1718L89.1352 69.5015H87.7253L87.559 71.6324H88.7151Z" fill="#263238"/>
<path d="M89.482 70.3094C89.5356 69.4274 89.9416 68.8641 90.6945 68.8641C91.4474 68.8641 91.8055 69.4274 91.7688 70.3094L91.6419 73.4252C91.6025 74.3684 91.1823 74.996 90.3815 74.996C89.5807 74.996 89.2311 74.3523 89.2903 73.4252L89.482 70.3094ZM89.8514 73.4445C89.8204 74.0111 90.0009 74.3426 90.4153 74.3426C90.8298 74.3426 91.0413 74.0207 91.0695 73.4445L91.2134 70.2772C91.2387 69.7557 91.0695 69.4435 90.6663 69.4435C90.2631 69.4435 90.0601 69.7654 90.0319 70.2772L89.8514 73.4445Z" fill="#263238"/>
<path d="M93.4437 68.9189C94.2163 68.9189 94.5349 69.3759 94.5209 70.2354V70.7117C94.5209 71.3555 94.3094 71.7708 93.8723 71.9317C94.3319 72.0959 94.4983 72.5465 94.487 73.1999L94.4729 74.1656C94.4506 74.4223 94.4816 74.6815 94.5632 74.922H93.9767C93.9014 74.6775 93.8745 74.417 93.8977 74.1592L93.9175 73.1935C93.9175 72.5047 93.6693 72.289 93.1984 72.289H92.798L92.7163 74.9317H92.1523L92.3469 68.9189H93.4437ZM93.2266 71.6678C93.675 71.6678 93.9456 71.4972 93.9597 70.8534V70.2933C93.9597 69.7718 93.8131 69.5015 93.3958 69.5015H92.8572L92.7896 71.6678L93.2266 71.6678Z" fill="#263238"/>
<path d="M98.367 70.3029V70.4607H97.8453V70.2675C97.8453 69.7461 97.662 69.4435 97.2673 69.4435C96.8725 69.4435 96.7033 69.7461 96.7033 70.2611C96.7033 71.584 98.3952 71.7096 98.4375 73.4188C98.4544 74.3587 98.0878 74.9799 97.2926 74.9799C96.4975 74.9799 96.1281 74.3587 96.1309 73.4188V73.0679H96.6639V73.4542C96.6639 74.0111 96.8612 74.3426 97.2729 74.3426C97.6846 74.3426 97.8735 74.0207 97.8679 73.4542C97.8481 72.0959 96.1535 71.9671 96.1563 70.3029C96.1563 69.4081 96.5087 68.8641 97.2475 68.8641C97.9863 68.8641 98.3501 69.4274 98.367 70.3029Z" fill="#263238"/>
<path d="M99.5146 73.657L99.3511 74.9188H98.8181L99.6274 68.9189H100.423L101.644 74.9188H101.065L100.815 73.657H99.5146ZM99.571 73.068H100.713L100.019 69.6399L99.571 73.068Z" fill="#263238"/>
<path d="M102.097 74.9188L101.793 68.9189H102.357L102.639 74.2783H104.114L104.159 74.922L102.097 74.9188Z" fill="#263238"/>
<path d="M106.147 71.4939L106.197 72.0927H104.96L105.129 74.2751H106.68L106.736 74.9188H104.613L104.167 68.9189H106.192L106.245 69.5015H104.759L104.914 71.4972L106.147 71.4939Z" fill="#263238"/>
<path d="M118.917 93.0603C118.917 93.0603 113.709 94.6247 111.242 96.5013C108.775 98.3779 107.675 99.4755 106.854 101.973C106.034 104.471 106.023 108.566 106.023 108.566C106.023 108.566 119.459 106.377 121.79 104.809C124.122 103.242 124.258 99.8038 124.393 98.5517C124.472 97.7655 124.426 96.9695 124.258 96.2019L118.917 93.0603Z" fill="white" stroke="#263238" stroke-linecap="round" stroke-linejoin="round"/>
<line x1="110.653" y1="103.439" x2="110.653" y2="106.289" stroke="#263238" stroke-linecap="round" stroke-linejoin="round"/>
<line x1="110.653" y1="101.817" x2="110.653" y2="101.958" stroke="#263238" stroke-linecap="round" stroke-linejoin="round"/>
<line x1="112.21" y1="101.131" x2="112.21" y2="105.603" stroke="#263238" stroke-linecap="round" stroke-linejoin="round"/>
<line x1="113.769" y1="104.91" x2="113.769" y2="105.052" stroke="#263238" stroke-linecap="round" stroke-linejoin="round"/>
<line x1="113.769" y1="100.445" x2="113.769" y2="103.115" stroke="#263238" stroke-linecap="round" stroke-linejoin="round"/>
<line x1="115.326" y1="99.7599" x2="115.326" y2="104.229" stroke="#263238" stroke-linecap="round" stroke-linejoin="round"/>
<line x1="116.882" y1="103.806" x2="116.882" y2="103.948" stroke="#263238" stroke-linecap="round" stroke-linejoin="round"/>
<line x1="116.882" y1="99.0742" x2="116.882" y2="101.947" stroke="#263238" stroke-linecap="round" stroke-linejoin="round"/>
<line x1="118.442" y1="98.3886" x2="118.442" y2="102.857" stroke="#263238" stroke-linecap="round" stroke-linejoin="round"/>
<line x1="119.998" y1="101.598" x2="119.998" y2="102.172" stroke="#263238" stroke-linecap="round" stroke-linejoin="round"/>
<line x1="119.998" y1="97.6998" x2="119.998" y2="99.5549" stroke="#263238" stroke-linecap="round" stroke-linejoin="round"/>
<line x1="121.557" y1="97.0142" x2="121.557" y2="101.486" stroke="#263238" stroke-linecap="round" stroke-linejoin="round"/>
<path d="M49.3066 93.0603C49.3066 93.0603 54.5174 94.6247 56.9847 96.5013C59.452 98.3779 60.5488 99.4755 61.3722 101.973C62.1956 104.471 62.1956 108.546 62.1956 108.546C62.1956 108.546 48.7596 106.357 46.4277 104.79C44.0957 103.222 43.9604 99.7845 43.8222 98.5324C43.7449 97.746 43.7917 96.9501 43.9604 96.1826L49.3066 93.0603Z" fill="white" stroke="#263238" stroke-linecap="round" stroke-linejoin="round"/>
<line x1="58.2065" y1="103.439" x2="58.2065" y2="106.289" stroke="#263238" stroke-linecap="round" stroke-linejoin="round"/>
<line x1="58.2065" y1="101.817" x2="58.2065" y2="101.958" stroke="#263238" stroke-linecap="round" stroke-linejoin="round"/>
<line x1="56.6501" y1="101.131" x2="56.6501" y2="105.603" stroke="#263238" stroke-linecap="round" stroke-linejoin="round"/>
<line x1="55.0908" y1="104.91" x2="55.0908" y2="105.052" stroke="#263238" stroke-linecap="round" stroke-linejoin="round"/>
<line x1="55.0908" y1="100.445" x2="55.0908" y2="103.115" stroke="#263238" stroke-linecap="round" stroke-linejoin="round"/>
<line x1="53.5343" y1="99.7599" x2="53.5343" y2="104.229" stroke="#263238" stroke-linecap="round" stroke-linejoin="round"/>
<line x1="51.975" y1="103.806" x2="51.975" y2="103.948" stroke="#263238" stroke-linecap="round" stroke-linejoin="round"/>
<line x1="51.975" y1="99.0742" x2="51.975" y2="101.947" stroke="#263238" stroke-linecap="round" stroke-linejoin="round"/>
<line x1="50.4185" y1="98.3886" x2="50.4185" y2="102.857" stroke="#263238" stroke-linecap="round" stroke-linejoin="round"/>
<line x1="48.8592" y1="101.598" x2="48.8592" y2="102.172" stroke="#263238" stroke-linecap="round" stroke-linejoin="round"/>
<line x1="48.8592" y1="97.6998" x2="48.8592" y2="99.5549" stroke="#263238" stroke-linecap="round" stroke-linejoin="round"/>
<line x1="47.3027" y1="97.0142" x2="47.3027" y2="101.486" stroke="#263238" stroke-linecap="round" stroke-linejoin="round"/>
<path d="M66.2644 111.45C65.6118 108.259 65.1678 105.017 64.9363 101.751L68.5823 99.9036L83.493 100.129L100.265 99.9036L103.911 101.751C103.683 105.02 103.243 108.265 102.594 111.459L66.2644 111.45ZM68.2129 118.731C69.2139 121.628 70.2262 123.514 71.0326 124.045C72.2282 124.84 75.0845 126.189 83.5324 125.69C93.8047 126.189 96.6639 124.84 97.8594 124.045C98.6546 123.514 99.6669 121.641 100.679 118.731H68.2129Z" fill="#263238" stroke="#263238" stroke-linecap="round" stroke-linejoin="round"/>
<path d="M103.911 101.751L100.265 99.9036L83.493 100.129L68.5823 99.9036L64.9363 101.751C64.9363 101.751 64.9505 101.98 64.9815 102.395L76.8835 104.185L78.7051 105.34H90.0403L91.8647 104.185L103.863 102.395C103.896 101.98 103.911 101.751 103.911 101.751Z" fill="#757575" stroke="#263238" stroke-linecap="round" stroke-linejoin="round"/>
<path d="M100.265 99.894L83.493 100.119L68.5822 99.894L67.2147 100.586H74.5544L76.3759 101.397H92.877L94.191 100.702H101.861L100.265 99.894Z" fill="#263238" stroke="#263238" stroke-linecap="round" stroke-linejoin="round"/>
<path d="M65.5454 106.943L66.5576 105.556H69.1884C70.8225 106.033 72.4835 106.381 74.1596 106.596C76.8948 106.943 96.5313 106.596 96.5313 106.596L100.073 105.672H102.075L103.087 107.519L90.1306 109.129L87.9058 110.053H80.222L78.299 108.781L65.5454 106.943Z" fill="#757575" stroke="#263238" stroke-linecap="round" stroke-linejoin="round"/>
<path d="M100.665 109.37L97.0248 110.764H71.7206L68.0747 109.377L65.8189 109.09C65.9458 109.85 66.1009 110.642 66.2588 111.456H102.594C102.738 110.745 102.876 110.05 102.986 109.377L100.665 109.37Z" fill="#757575" stroke="#263238" stroke-linecap="round" stroke-linejoin="round"/>
<path d="M58.9641 126.009L59.9764 123.929C58.927 122.104 57.3522 120.755 55.5241 120.115C52.3857 118.959 48.9428 118.383 47.8291 118.843C46.7153 119.304 46.4192 122.658 46.6166 123.582C46.8139 124.505 47.7445 125.317 47.7445 125.317L58.9641 126.009Z" fill="#474747"/>
<path d="M55.5241 120.115C53.9218 119.523 52.2773 119.092 50.6093 118.827C50.1618 119.049 49.8154 119.474 49.6534 119.999C48.9429 121.966 49.0444 123.353 50.0566 124.853C50.2116 125.085 50.3843 125.3 50.5726 125.497L58.9642 126.015L59.9764 123.936C58.928 122.108 57.3531 120.757 55.5241 120.115Z" fill="#263238"/>
<path d="M54.2073 122.368C54.2073 123.676 53.2782 124.737 52.132 124.737C50.9858 124.737 50.0566 123.676 50.0566 122.368C50.0566 121.06 50.9858 119.999 52.132 119.999C52.6826 119.998 53.2109 120.247 53.6003 120.692C53.9896 121.136 54.208 121.74 54.2073 122.368Z" fill="#ABABAB" stroke="#263238" stroke-linecap="round" stroke-linejoin="round"/>
<path d="M109.621 126.009L108.608 123.929C109.661 122.103 111.24 120.754 113.072 120.115C116.207 118.959 119.65 118.383 120.764 118.843C121.878 119.304 122.174 122.658 121.979 123.582C121.785 124.505 120.866 125.317 120.866 125.317L109.621 126.009Z" fill="#474747"/>
<path d="M113.072 120.115C114.674 119.522 116.319 119.091 117.987 118.827C118.434 119.05 118.78 119.474 118.943 119.999C119.65 121.966 119.549 123.353 118.536 124.853C118.382 125.085 118.209 125.3 118.02 125.497L109.629 126.015L108.617 123.936C109.667 122.109 111.242 120.757 113.072 120.115Z" fill="#263238"/>
<ellipse cx="2.32876" cy="2.12047" rx="2.32876" ry="2.12047" transform="matrix(0.339456 -0.940622 0.904925 0.425571 116.307 124.005)" fill="#ABABAB" stroke="#263238" stroke-linecap="round" stroke-linejoin="round"/>
<path d="M58.0534 63.3792H59.6747C59.6747 63.3792 60.1738 60.9264 61.7444 60.3599H63.0133C63.0133 60.3599 62.001 58.9886 60.4755 59.2204C58.9501 59.4522 58.0534 60.8363 58.0534 63.3792Z" fill="white" stroke="#263238" stroke-linecap="round" stroke-linejoin="round"/>
<path d="M61.7021 59.3653C59.1334 60.112 59.6747 63.3792 59.6747 63.3792C59.6747 63.3792 60.1738 60.9264 61.7444 60.3599H63.0133C62.6535 59.9117 62.2035 59.5704 61.7021 59.3653Z" fill="#263238" stroke="#263238" stroke-linecap="round" stroke-linejoin="round"/>
<path d="M109.984 63.3792H108.363C108.363 63.3792 107.864 60.9264 106.29 60.3599H105.022C105.022 60.3599 106.034 58.9886 107.559 59.2204C109.085 59.4522 109.984 60.8363 109.984 63.3792Z" fill="white" stroke="#263238" stroke-linecap="round" stroke-linejoin="round"/>
<path d="M106.336 59.3653C108.904 60.1121 108.363 63.3792 108.363 63.3792C108.363 63.3792 107.864 60.9264 106.29 60.3599H105.022C105.383 59.9121 105.834 59.5708 106.336 59.3653Z" fill="#263238" stroke="#263238" stroke-linecap="round" stroke-linejoin="round"/>
<path d="M60.9069 83.6838L76.1334 82.438L79.0011 81.3115C79.0011 81.3115 89.9811 80.8576 97.5972 82.2128H78.3103" stroke="#8A8A8A" stroke-linecap="round" stroke-linejoin="round"/>
<path d="M119.836 53.1625L123.561 87.9037L123.056 46.1003" stroke="#263238"/>
<path d="M122.202 30.4985L123.561 87.9037L127.633 42.0832" stroke="#263238"/>
<line y1="-0.5" x2="51.1479" y2="-0.5" transform="matrix(0.148021 0.988984 -0.981506 0.191434 116.12 36.7044)" stroke="#263238"/>
<path d="M129.246 25.1423C129.203 29.0049 126.395 35.2817 123.009 35.2334C119.622 35.1851 116.862 28.8408 116.983 24.9749C117.138 19.9792 119.802 17.1917 123.186 17.2496C126.57 17.3076 129.294 20.3912 129.246 25.1423Z" fill="#263238" stroke="#263238" stroke-linecap="round" stroke-linejoin="round"/>
<path opacity="0.5" d="M127.21 21.3376C127.523 22.3773 127.12 23.4749 126.313 23.7936C125.507 24.1122 124.593 23.5264 124.283 22.4867C123.973 21.447 124.37 20.3494 125.18 20.0307C125.989 19.712 126.889 20.314 127.21 21.3376Z" fill="white"/>
<path d="M119.704 29.9513C120.815 33.6015 120.039 40.5897 116.842 41.8611C113.644 43.1325 109.158 38.2302 108.12 34.5511C106.778 29.7903 108.462 26.1337 111.659 24.8623C114.857 23.5908 118.331 25.4642 119.704 29.9513Z" fill="#FF003D" stroke="#263238" stroke-linecap="round" stroke-linejoin="round"/>
<path opacity="0.5" d="M116.092 26.9159C116.749 27.7174 116.777 28.9051 116.154 29.5747C115.531 30.2442 114.49 30.1315 113.833 29.3332C113.176 28.535 113.148 27.3408 113.771 26.6712C114.394 26.0017 115.435 26.1079 116.092 26.9159Z" fill="white"/>
<path d="M134.812 36.2184C134.459 40.0617 131.146 46.0102 127.782 45.6046C124.418 45.199 122.182 38.5843 122.617 34.7506C123.181 29.7936 126.065 27.2989 129.432 27.7045C132.799 28.1101 135.249 31.4802 134.812 36.2184Z" fill="#FF003D" stroke="#263238" stroke-linecap="round" stroke-linejoin="round"/>
<path opacity="0.5" d="M133.289 32.2721C133.723 33.2377 133.461 34.403 132.7 34.8471C131.939 35.2914 130.966 34.8471 130.529 33.8815C130.092 32.9158 130.357 31.7506 131.118 31.3064C131.879 30.8622 132.852 31.2935 133.289 32.2721Z" fill="white"/>
<path d="M127.884 40.5639C127.602 44.4265 124.376 50.4297 121.001 50.095C117.626 49.7602 115.294 43.1905 115.669 39.3472C116.151 34.3772 118.999 31.8279 122.371 32.1627C125.744 32.4974 128.248 35.8193 127.884 40.5639Z" fill="#263238" stroke="#263238" stroke-linecap="round" stroke-linejoin="round"/>
<path opacity="0.5" d="M125.679 36.109C125.992 37.1455 125.591 38.2463 124.782 38.5617C123.973 38.8772 123.065 38.2946 122.752 37.2581C122.439 36.2216 122.839 35.1208 123.649 34.8021C124.458 34.4835 125.366 35.0693 125.679 36.109Z" fill="white"/>
<path d="M123.316 43.419C124.444 47.066 123.668 54.0573 120.471 55.3288C117.273 56.6002 112.781 51.7108 111.73 48.0348C110.379 43.2742 112.057 39.6143 115.254 38.3396C118.452 37.065 121.937 38.9222 123.316 43.419Z" fill="#FF003D" stroke="#263238" stroke-linecap="round" stroke-linejoin="round"/>
<path opacity="0.5" d="M120.46 40.5928C121.221 41.2656 121.415 42.4372 120.891 43.2065C120.366 43.9758 119.329 44.0628 118.568 43.39C117.806 42.7173 117.612 41.5585 118.147 40.7763C118.683 39.9941 119.698 39.9233 120.46 40.5928Z" fill="white"/>
<path d="M30.9868 47.6743C31.4634 47.4104 31.7284 46.3642 31.5874 45.1765C31.4323 43.8535 30.8346 42.8557 30.2565 42.9458C29.7997 43.0134 29.4896 43.7409 29.4557 44.6904L30.9868 47.6743Z" fill="#263238" stroke="#263238" stroke-linecap="round" stroke-linejoin="round"/>
<path d="M18.6111 40.2709C19.145 39.5128 19.2315 38.4643 18.831 37.6057C18.174 36.022 13.1408 36.1057 11.3164 39.1057C9.49205 42.1057 11.3559 45.6143 13.8542 45.0992C15.7913 44.7033 18.0189 41.5166 18.6111 40.2709Z" fill="white" stroke="#263238" stroke-linecap="round" stroke-linejoin="round"/>
<path d="M11.308 39.1025C11.3704 40.535 11.9578 41.8715 12.9265 42.7849C14.5676 44.3525 15.8506 44.0499 15.8506 44.0499" stroke="#263238" stroke-linecap="round" stroke-linejoin="round"/>
<path d="M11.7281 38.6873C11.7281 38.6873 13.1041 40.4061 14.4322 41.1143C15.2051 41.5237 15.9581 41.9804 16.688 42.4823" stroke="#263238" stroke-linecap="round" stroke-linejoin="round"/>
<path d="M12.0383 38.1787C12.0383 38.1787 13.9444 37.6218 15.6306 38.0789C16.6683 38.3916 17.5584 39.1537 18.112 40.2033" stroke="#263238" stroke-linecap="round" stroke-linejoin="round"/>
<path d="M28.8298 40.7409C28.8298 40.7409 29.6249 42.2312 29.7941 43.316C29.9633 44.4007 29.7941 45.1958 30.0761 45.8428C30.358 46.4898 31.4859 47.3975 31.266 47.9801C31.0461 48.5627 30.2453 48.9458 30.2453 48.9458C30.2453 48.9458 29.0525 51.9264 28.4294 52.8342C27.8062 53.7419 25.4207 52.8342 25.4207 52.8342L25.3643 54.2601L20.7118 53.2944C20.7118 53.2944 21.2221 52.4511 20.3706 51.4146C19.519 50.3782 16.9644 46.8792 19.9166 43.5123C22.8689 40.1454 27.8654 40.3514 28.8298 40.7409Z" fill="white" stroke="#263238" stroke-linecap="round" stroke-linejoin="round"/>
<path d="M25.4235 52.8567L23.5005 52.4543L25.3671 54.2826L25.4235 52.8567Z" fill="#263238" stroke="#263238" stroke-linecap="round" stroke-linejoin="round"/>
<path d="M29.0017 41.169C28.6452 40.4056 28.1888 39.7087 27.6483 39.1025C25.9564 37.2677 22.178 37.0199 19.113 39.3503C16.0479 41.6808 14.0064 48.096 15.7575 50.4264C17.5085 52.7569 21.4477 51.2601 21.4477 51.2601C21.4477 51.2601 20.7174 47.9286 21.6676 47.5938C22.6179 47.2591 23.492 47.6775 23.6414 46.9308C23.7909 46.184 23.5681 44.2656 25.0287 43.1808C26.4894 42.096 28.3814 42.5789 29.0017 41.169Z" fill="white" stroke="#263238" stroke-linecap="round" stroke-linejoin="round"/>
<path d="M21.3039 49.9275C21.3039 49.9275 20.0632 51.0413 17.6382 50.1303C15.2133 49.2194 15.3345 46.4351 15.3345 46.4351" stroke="#263238" stroke-linecap="round" stroke-linejoin="round"/>
<path d="M15.8082 44.6582C15.7858 46.0906 16.5734 47.3769 17.7595 47.8449C19.8404 48.7558 20.9063 48.199 20.9063 48.199" stroke="#263238" stroke-linecap="round" stroke-linejoin="round"/>
<path d="M16.3383 43.1904C16.815 44.744 17.9234 45.9362 19.3103 46.3868C19.8628 46.5901 20.4285 46.7429 21.0022 46.8438" stroke="#263238" stroke-linecap="round" stroke-linejoin="round"/>
<path d="M16.8262 42.1765C18.0074 43.0293 19.2542 43.7576 20.551 44.3524C22.5023 45.2151 24.2759 43.8986 24.2759 43.8986" stroke="#263238" stroke-linecap="round" stroke-linejoin="round"/>
<path d="M17.8018 40.8632C17.8018 40.8632 18.1571 41.6711 21.7917 41.2173C25.4263 40.7634 27.1492 41.3235 27.465 42.1282" stroke="#263238" stroke-linecap="round" stroke-linejoin="round"/>
<path d="M18.5124 39.9007C19.6135 39.6231 20.6946 39.2508 21.7466 38.787C23.9629 37.8761 27.434 38.3911 29.0017 41.169" stroke="#263238" stroke-linecap="round" stroke-linejoin="round"/>
<path d="M22.4684 48.1797C22.4684 48.1797 21.9581 45.9265 20.7766 45.9265C19.5951 45.9265 19.9758 48.6754 20.8499 49.7569C21.724 50.8384 22.2513 50.2494 22.2513 50.2494" fill="white"/>
<path d="M22.4684 48.1797C22.4684 48.1797 21.9581 45.9265 20.7766 45.9265C19.5951 45.9265 19.9758 48.6754 20.8499 49.7569C21.724 50.8384 22.2513 50.2494 22.2513 50.2494" stroke="#263238" stroke-linecap="round" stroke-linejoin="round"/>
<path d="M26.3371 49.0938C26.3371 49.0938 27.0646 50.5102 28.3109 50.1786" stroke="#263238" stroke-linecap="round" stroke-linejoin="round"/>
<ellipse cx="2.40728" cy="2.12261" rx="2.40728" ry="2.12261" transform="matrix(0.137274 -0.990533 0.984081 0.177722 28.6032 47.6083)" fill="#263238" stroke="#263238" stroke-linecap="round" stroke-linejoin="round"/>
<line x1="0.5" y1="-0.5" x2="3.35431" y2="-0.5" transform="matrix(-0.965682 0.259727 -0.202131 -0.979359 25.6068 45.6786)" stroke="#263238" stroke-linecap="round" stroke-linejoin="round"/>
<line x1="0.5" y1="-0.5" x2="0.509498" y2="-0.5" transform="matrix(0.961138 -0.276067 0.215246 0.97656 29.374 45.1378)" stroke="#263238" stroke-linecap="round" stroke-linejoin="round"/>
<path d="M22.2513 131.458V136.789H18.1655V131.374L22.2513 131.458Z" fill="white" stroke="#263238" stroke-linecap="round" stroke-linejoin="round"/>
<path d="M25.8972 132.041L25.8239 135.372L28.0148 136.37L29.3993 135.372V131.542L25.8972 132.041Z" fill="white" stroke="#263238" stroke-linecap="round" stroke-linejoin="round"/>
<path d="M29.6926 60.17C29.6926 60.17 32.0189 61.6957 32.3657 63.6753C32.7125 65.6549 33.4062 72.9038 34.2126 75.1441C35.0191 77.3845 35.3687 78.8362 34.9062 79.4961C34.4926 80.1454 34.3258 80.9577 34.4438 81.7492C34.5594 82.2771 35.5999 82.6731 35.1375 83.7288C34.675 84.7846 34.0998 85.8372 34.0998 85.8372V99.9455C34.0998 101.265 32.7125 102.842 32.3657 103.242C32.0189 103.641 31.4408 102.189 31.4408 101.133C31.4408 100.077 31.2096 75.8169 30.8769 73.9725C30.5441 72.1281 28.5647 60.5208 28.5647 60.5208C28.5647 60.5208 28.8664 59.4361 29.6926 60.17Z" fill="#FF003D" stroke="#263238" stroke-linecap="round" stroke-linejoin="round"/>
<path d="M32.3657 103.229C32.7125 102.836 34.0998 101.252 34.0998 99.9326V88.0067C33.17 88.2028 32.2201 88.2429 31.2801 88.1258C31.376 94.4541 31.4324 100.602 31.4324 101.12C31.4408 102.176 32.0189 103.625 32.3657 103.229Z" fill="white" stroke="#263238" stroke-linecap="round" stroke-linejoin="round"/>
<path d="M15.6842 93.9809L17.9399 133.122L22.4515 133.039L25.3784 93.3146L25.8183 93.3983L25.5983 132.955L29.5459 132.791L33.6317 95.6354C33.6317 95.6354 32.7548 87.1408 31.9399 85.1419C31.4305 83.9003 30.7656 82.7498 29.9661 81.7267H18.2388C18.2388 81.7267 16.2679 85.4863 15.6842 93.9809Z" fill="#263238" stroke="#263238" stroke-linecap="round" stroke-linejoin="round"/>
<path d="M25.3136 57.1732C25.3136 57.1732 27.6483 58.9211 28.1587 60.421C28.669 61.921 30.5667 82.5733 30.5667 82.9048C30.5667 83.2363 27.0646 83.1558 25.0231 83.2267C22.9816 83.2975 22.2513 83.3104 22.2513 83.3104C22.2513 83.3104 19.5529 62.9897 19.0397 60.9071C18.5265 58.8244 19.0397 57.994 19.6233 57.3277C20.207 56.6614 21.1573 56.494 21.5972 56.2429C22.037 55.9919 25.3136 57.1732 25.3136 57.1732Z" fill="white" stroke="#263238" stroke-linecap="round" stroke-linejoin="round"/>
<path d="M26.1172 58.5058C26.1172 58.5058 27.8682 62.9188 28.8156 72.9907C29.3796 79.1387 29.2527 95.9766 29.2527 95.9766C29.782 96.4921 30.5318 96.5913 31.1504 96.2276C32.2947 95.7349 33.4642 95.3221 34.6525 94.9916C34.6525 94.9916 33.2652 84.1633 33.1947 80.4166C33.1242 76.6698 31.5874 65.8416 30.86 62.7611C30.1325 59.6807 29.8364 59.2654 28.7423 58.5154C27.6483 57.7654 25.9706 57.5144 25.9706 57.5144L26.1172 58.5058Z" fill="#FF003D" stroke="#263238" stroke-linecap="round" stroke-linejoin="round"/>
<path d="M26.2638 58.1711C26.2638 58.1711 26.7008 55.8406 26.6275 54.9232C26.5542 54.0059 26.3315 53.9318 24.5804 53.8481C22.8294 53.7644 20.7907 52.1743 20.207 53.008C19.6233 53.8417 19.4795 56.9221 19.8433 57.3309C20.207 57.7397 21.7128 58.8727 24.0503 59.1174C24.8793 59.2107 26.0438 58.8374 26.2638 58.1711Z" fill="white" stroke="#263238" stroke-linecap="round" stroke-linejoin="round"/>
<path d="M19.6966 56.9221C19.6966 56.9221 15.1851 60.2537 14.2264 61.5026C13.2677 62.7515 15.1005 80.7417 15.1738 85.2385C15.194 88.2995 15.048 91.359 14.7367 94.3994C16.2284 95.2037 17.7636 95.8983 19.3329 96.4788C21.1316 97.1193 23.0507 97.1772 24.8765 96.6461C24.8765 96.6461 23.929 80.0754 23.7824 75.2439C23.6358 70.4124 22.178 62.0852 21.6676 60.17C21.1573 58.2547 19.6966 56.9221 19.6966 56.9221Z" fill="#FF003D" stroke="#263238" stroke-linecap="round" stroke-linejoin="round"/>
<path d="M19.6233 56.4232C19.6233 56.4232 15.3204 59.671 15.6109 60.0863C15.9013 60.5015 17.8667 71.5808 17.8667 77.1462C17.8667 82.7116 18.0866 93.7202 18.0866 93.7202C18.0866 93.7202 19.4739 93.7202 20.4946 93.8038C21.5154 93.8876 23.7035 93.482 23.7035 93.482C23.7035 93.482 22.9732 81.9906 22.9732 76.1613C22.9732 70.3319 21.1516 61.4189 20.7174 60.0026C20.2832 58.5863 19.6233 56.4232 19.6233 56.4232Z" fill="#263238" stroke="#263238" stroke-linecap="round" stroke-linejoin="round"/>
<path d="M26.3371 57.7558C26.3371 57.7558 28.0148 67.7504 28.7423 74.2461C29.4698 80.7417 30.2763 88.4091 30.2763 89.6516V92.8157C30.2763 92.8157 31.6607 93.0668 32.1711 93.0668C32.5965 93.0312 33.0147 92.9227 33.4118 92.7449C33.4118 92.7449 32.3177 81.6688 32.0273 76.5894C31.7369 71.51 30.2029 61.9339 29.6926 60.1732L29.1822 58.4254C29.1822 58.4254 27.3522 57.3309 26.3371 57.7558Z" fill="#263238" stroke="#263238" stroke-linecap="round" stroke-linejoin="round"/>
<path d="M15.6842 115.969L4.96923 112.721C4.96923 112.721 4.16561 116.635 3.43812 118.216C2.71063 119.796 2.18898 122.545 2.40892 123.961C2.62886 125.378 3.94003 126.295 4.96077 126.71C5.98151 127.126 13.7893 129.707 15.7575 129.543C17.7257 129.379 18.0133 127.544 17.8018 125.96C17.5903 124.377 15.6842 115.969 15.6842 115.969Z" fill="#263238" stroke="#263238" stroke-linecap="round" stroke-linejoin="round"/>
<path d="M17.8018 125.96C17.5819 124.38 15.6842 115.982 15.6842 115.982L15.0187 115.779C14.9003 116.461 13.4143 124.982 13.2057 127.138C13.0957 128.252 13.3636 128.915 13.8204 129.334C14.4572 129.487 15.1067 129.561 15.7575 129.556C17.7285 129.376 18.0189 127.544 17.8018 125.96Z" fill="#4C4C4C" stroke="#263238" stroke-linecap="round" stroke-linejoin="round"/>
<path d="M9.77684 100.142L6.79358 114.974C6.74544 115.21 6.55369 115.37 6.34242 115.351C6.21699 115.338 6.10302 115.262 6.03079 115.144C5.95855 115.026 5.93537 114.878 5.9674 114.739L9.63304 98.9669L13.0618 99.6332L14.4717 116.783C14.4831 116.939 14.429 117.091 14.326 117.193C14.2229 117.296 14.0833 117.336 13.95 117.302L13.888 117.285C13.7039 117.237 13.5696 117.056 13.5581 116.841L12.7122 100.38L9.77684 100.142Z" fill="#263238" stroke="#263238" stroke-linecap="round" stroke-linejoin="round"/>
<path d="M15.1005 60.6689C15.1005 60.6689 12.0382 61.8373 11.5984 63.0863C11.1585 64.3352 10.6509 74.1624 10.4338 76.4928C10.2167 78.8233 10.2167 79.4091 10.2167 79.4091C10.2167 79.4091 8.39234 80.407 8.6856 81.7396C8.97885 83.0722 10.0701 84.2374 10.0701 84.5722C10.0701 84.9069 10.5071 95.2298 10.5071 95.2298C10.5071 95.2298 9.12266 100.229 9.41308 100.644C9.70352 101.059 10.8004 101.561 10.947 101.809C11.0936 102.057 11.8944 102.974 12.2582 102.643C12.4697 102.453 12.6212 102.19 12.6896 101.893L12.9067 100.979C12.9067 100.979 13.7837 101.977 14.0008 101.977C14.2179 101.977 13.637 100.061 13.637 98.8124C13.637 97.5635 12.6896 95.8125 12.6896 95.4809C12.6896 95.1494 13.6427 85.3351 13.6427 85.3351C13.6427 85.3351 15.1005 83.9187 15.2471 82.76C15.3937 81.6012 15.0272 80.2589 15.1738 79.8437C15.3204 79.4284 15.8308 78.511 15.9041 77.6774C15.9774 76.8437 15.3937 75.598 15.3204 74.9317C15.2471 74.2654 15.8308 65.0208 15.8308 65.0208" fill="#FF003D"/>
<path d="M15.1005 60.6689C15.1005 60.6689 12.0382 61.8373 11.5984 63.0863C11.1585 64.3352 10.6509 74.1624 10.4338 76.4928C10.2167 78.8233 10.2167 79.4091 10.2167 79.4091C10.2167 79.4091 8.39234 80.407 8.6856 81.7396C8.97885 83.0722 10.0701 84.2374 10.0701 84.5722C10.0701 84.9069 10.5071 95.2298 10.5071 95.2298C10.5071 95.2298 9.12266 100.229 9.41308 100.644C9.70352 101.059 10.8004 101.561 10.947 101.809C11.0936 102.057 11.8944 102.974 12.2582 102.643C12.4697 102.453 12.6212 102.19 12.6896 101.893L12.9067 100.979C12.9067 100.979 13.7837 101.977 14.0008 101.977C14.2179 101.977 13.637 100.061 13.637 98.8124C13.637 97.5635 12.6896 95.8125 12.6896 95.4809C12.6896 95.1494 13.6427 85.3351 13.6427 85.3351C13.6427 85.3351 15.1005 83.9187 15.2471 82.76C15.3937 81.6012 15.0272 80.2589 15.1738 79.8437C15.3204 79.4284 15.8308 78.511 15.9041 77.6774C15.9774 76.8437 15.3937 75.598 15.3204 74.9317C15.2471 74.2654 15.8308 65.0208 15.8308 65.0208" stroke="#263238" stroke-linecap="round" stroke-linejoin="round"/>
<path d="M10.9442 101.809C11.0881 102.06 11.8917 102.974 12.2554 102.643C12.468 102.454 12.6205 102.19 12.6897 101.893L12.9068 100.979C12.9068 100.979 13.7837 101.977 14.0008 101.977C14.2179 101.977 13.6371 100.061 13.6371 98.8125C13.6371 97.5635 12.6897 95.8125 12.6897 95.4809C12.6897 95.2556 13.1211 90.6944 13.403 87.7556L10.1745 87.4724C10.3042 90.6333 10.4987 95.2266 10.4987 95.2266C10.4987 95.2266 9.11424 100.225 9.40467 100.641C9.69511 101.056 10.7976 101.561 10.9442 101.809Z" fill="white" stroke="#263238" stroke-linecap="round" stroke-linejoin="round"/>
<path d="M21.5943 136.454C21.5943 136.454 18.9692 135.955 18.5293 135.955C18.0894 135.955 16.1946 139.37 15.9041 140.7C15.6137 142.029 16.4878 142.531 16.7049 142.531H22.4684C22.4684 142.531 23.3454 142.531 23.4187 140.947C23.492 139.364 22.9083 137.117 22.9083 136.534C22.9083 135.952 23.2721 135.202 23.1254 134.786C22.9788 134.371 21.6676 134.123 21.5943 136.454Z" fill="#FF003D" stroke="#263238" stroke-linecap="round" stroke-linejoin="round"/>
<path d="M23.4187 140.951C23.4321 140.487 23.4113 140.023 23.3567 139.563C23.0465 139.978 22.8153 140.761 22.398 141.118C21.8143 141.617 20.3537 141.44 20.0632 141.369C19.7728 141.298 19.0397 139.702 18.6759 139.454C18.3122 139.206 17.5086 141.118 17.5086 141.118H15.8477C15.7734 141.767 16.1374 142.376 16.6937 142.534H22.4685C22.4685 142.534 23.3454 142.534 23.4187 140.951Z" fill="white" stroke="#263238" stroke-linecap="round" stroke-linejoin="round"/>
<path d="M18.3516 136.56C18.3516 136.56 17.861 132.778 18.2276 132.614C18.5941 132.45 21.8678 132.063 22.0145 132.894C22.1611 133.724 21.6028 136.653 21.6028 136.653L18.3516 136.56Z" fill="white" stroke="#263238" stroke-linecap="round" stroke-linejoin="round"/>
<path d="M19.1271 132.652L19.0819 134.11L20.8612 134.214L20.9994 132.652C20.3829 132.494 19.7435 132.494 19.1271 132.652Z" fill="#FF003D" stroke="#263238" stroke-linecap="round" stroke-linejoin="round"/>
<path d="M21.9214 137.22L18.1655 137.078C18.0977 137.077 18.0333 137.044 17.9867 136.988C17.9401 136.932 17.9151 136.856 17.9174 136.779C17.9172 136.7 17.9457 136.625 17.996 136.571C18.0462 136.518 18.1138 136.49 18.1825 136.496L21.9383 136.634C22.0801 136.634 22.1949 136.765 22.1949 136.927C22.1949 137.089 22.0801 137.22 21.9383 137.22H21.9214Z" fill="white" stroke="#263238" stroke-linecap="round" stroke-linejoin="round"/>
<path d="M21.6958 137.889L17.94 137.748C17.7994 137.743 17.6887 137.609 17.6918 137.448C17.6908 137.37 17.719 137.294 17.7695 137.24C17.8199 137.186 17.888 137.159 17.9569 137.165L21.7128 137.304C21.8545 137.304 21.9694 137.435 21.9694 137.597C21.9694 137.758 21.8545 137.889 21.7128 137.889H21.6958Z" fill="white" stroke="#263238" stroke-linecap="round" stroke-linejoin="round"/>
<path d="M21.2616 138.507L18.1966 138.366C18.0684 138.344 17.9784 138.21 17.9935 138.063C17.9935 137.902 18.0922 137.764 18.2107 137.783L21.2757 137.922C21.4031 137.945 21.4923 138.078 21.4787 138.224C21.4868 138.371 21.3899 138.497 21.2616 138.507Z" fill="white" stroke="#263238" stroke-linecap="round" stroke-linejoin="round"/>
<path d="M28.0882 135.456C28.0882 135.456 25.6801 134.207 25.1697 134.79C24.6594 135.372 24.5127 135.704 24.8878 135.955C25.2628 136.206 25.7647 136.537 25.7647 136.537C25.7647 136.537 24.9611 140.783 25.2543 141.366C25.4801 141.766 25.7782 142.106 26.1284 142.364H36.1949C36.1949 142.364 36.7786 142.042 36.2682 140.864C35.7578 139.686 33.7163 139.116 32.9127 138.533C32.1091 137.951 30.578 135.784 30.5047 135.536C30.4313 135.289 30.8712 133.035 30.3608 132.787C29.8505 132.54 28.2432 132.787 28.3165 133.454C28.3966 133.992 28.5193 134.521 28.6831 135.034L28.0882 135.456Z" fill="#FF003D" stroke="#263238" stroke-linecap="round" stroke-linejoin="round"/>
<path d="M30.3016 138.462C30.406 138.633 30.5582 138.736 30.6428 138.694L32.2501 137.915C32.0922 137.741 31.9286 137.548 31.7707 137.352L30.265 138.079C30.1719 138.124 30.1973 138.292 30.3016 138.462Z" fill="white" stroke="#263238" stroke-linecap="round" stroke-linejoin="round"/>
<path d="M29.3965 137.159C29.498 137.329 29.6785 137.426 29.7687 137.371L31.2209 136.647C31.0601 136.428 30.9163 136.225 30.8007 136.055L29.3909 136.756C29.2809 136.789 29.2922 136.982 29.3965 137.159Z" fill="white" stroke="#263238" stroke-linecap="round" stroke-linejoin="round"/>
<path d="M29.6785 137.539C29.5657 137.577 29.577 137.77 29.6785 137.941C29.78 138.112 29.9604 138.205 30.0507 138.153L31.7425 137.31C31.5874 137.117 31.4352 136.921 31.2942 136.734L29.6785 137.539Z" fill="white" stroke="#263238" stroke-linecap="round" stroke-linejoin="round"/>
<path d="M30.7161 135.897C30.6428 135.649 31.1729 132.627 30.6626 132.379C30.1522 132.131 28.3842 132.791 28.3053 133.457C28.232 134.069 28.6718 135.038 28.6718 135.038L29.4726 136.705C29.4726 136.705 30.5695 136.148 30.7161 135.897Z" fill="white" stroke="#263238" stroke-linecap="round" stroke-linejoin="round"/>
<path d="M29.2612 132.704L29.5798 133.747L30.4032 133.425L30.2199 132.433C30.2199 132.433 29.4896 132.33 29.2612 132.704Z" fill="#FF003D" stroke="#263238" stroke-linecap="round" stroke-linejoin="round"/>
<path d="M36.2569 140.867C36.1354 140.616 35.9693 140.396 35.7691 140.223C35.7603 140.245 35.7528 140.268 35.7465 140.291C35.5999 140.873 35.8198 141.456 35.5294 141.791C35.239 142.125 33.7783 142.042 32.611 141.874C31.4436 141.707 29.3993 140.957 28.0148 140.374C27.1018 140.043 26.1267 140.003 25.1951 140.259C25.1593 140.631 25.1716 141.007 25.2318 141.375C25.2898 141.897 25.6493 142.307 26.1059 142.373L36.1723 142.373C36.1723 142.373 36.7672 142.035 36.2569 140.867Z" fill="white" stroke="#263238" stroke-linecap="round" stroke-linejoin="round"/>
<line x1="4.40262" y1="142.08" x2="134.894" y2="142.08" stroke="#263238" stroke-width="0.90827" stroke-linecap="round" stroke-linejoin="round"/>
</svg>
